<svg width="364" height="80" viewBox="0 0 364 80" fill="none" xmlns="http://www.w3.org/2000/svg">
<path d="M130.333 57.5378L130.692 40.536L116.533 40.536L116.174 57.5378L112.847 57.5378L113.633 20.3155L116.96 20.3155L116.6 37.3433L130.759 37.3433L131.119 20.3155L134.446 20.3155L133.66 57.5378L130.333 57.5378ZM145.144 68.1802L142.075 68.1802L147.042 55.2536L138.992 30.9579L142.164 30.9579L148.625 51.1005L148.699 52.4762L148.831 51.1005L156.117 30.9579L159.289 30.9579L145.144 68.1802ZM178.509 57.5378L176.812 54.8383C176.069 55.8247 175.15 56.612 174.054 57.2004C172.959 57.7714 171.767 58.057 170.477 58.057L169.678 58.057C168.612 58.057 167.61 57.858 166.673 57.4599C165.736 57.0446 164.923 56.4822 164.233 55.7727C163.543 55.0633 163.001 54.2326 162.609 53.2809C162.234 52.3291 162.057 51.3168 162.08 50.2439L162.333 38.2518C162.356 37.1789 162.575 36.1666 162.99 35.2148C163.423 34.2631 163.999 33.4325 164.719 32.723C165.439 32.0135 166.276 31.4597 167.23 31.0617C168.185 30.6464 169.195 30.4387 170.261 30.4387L171.06 30.4387C172.247 30.4387 173.342 30.681 174.346 31.1655C175.35 31.6501 176.204 32.325 176.908 33.1902L177.18 20.3155L180.352 20.3155L179.566 57.5378L178.509 57.5378ZM176.805 38.0701C176.819 37.4298 176.711 36.8328 176.482 36.2791C176.253 35.708 175.937 35.2148 175.533 34.7995C175.129 34.3842 174.646 34.0554 174.084 33.8132C173.539 33.5709 172.948 33.4498 172.312 33.4498L170.197 33.4498C169.561 33.4498 168.957 33.5709 168.384 33.8132C167.829 34.0554 167.341 34.3842 166.919 34.7995C166.498 35.2148 166.161 35.708 165.908 36.2791C165.656 36.8328 165.523 37.4298 165.509 38.0701L165.248 50.4256C165.235 51.0659 165.342 51.6715 165.571 52.2426C165.8 52.7963 166.116 53.2809 166.52 53.6962C166.924 54.1115 167.399 54.4403 167.944 54.6826C168.506 54.9248 169.105 55.046 169.741 55.046L171.856 55.046C172.492 55.046 173.088 54.9248 173.643 54.6826C174.216 54.4403 174.713 54.1115 175.134 53.6962C175.556 53.2809 175.892 52.7963 176.145 52.2426C176.398 51.6715 176.531 51.0659 176.544 50.4256L176.805 38.0701ZM194.171 33.9949C193.534 33.9949 192.93 34.116 192.358 34.3582C191.802 34.6005 191.314 34.9293 190.893 35.3446C190.471 35.7599 190.134 36.2531 189.881 36.8242C189.629 37.3779 189.496 37.9749 189.482 38.6152L189.083 57.5378L185.911 57.5378L186.472 30.9579L187.529 30.9579L189.2 33.6574C189.943 32.671 190.862 31.8923 191.958 31.3213C193.07 30.7329 194.271 30.4387 195.561 30.4387L197.418 30.4387L197.343 33.9949L194.171 33.9949ZM217.658 57.5378L215.961 54.8902C215.218 55.842 214.299 56.612 213.204 57.2004C212.109 57.7714 210.916 58.057 209.627 58.057L208.827 58.057C207.761 58.057 206.76 57.858 205.822 57.4599C204.885 57.0446 204.072 56.4822 203.382 55.7727C202.692 55.0633 202.151 54.2326 201.758 53.2809C201.383 52.3291 201.207 51.3168 201.229 50.2439L201.235 49.9843C201.257 48.9115 201.477 47.8991 201.892 46.9474C202.325 45.9956 202.901 45.165 203.621 44.4555C204.341 43.746 205.178 43.1923 206.132 42.7943C207.086 42.379 208.097 42.1713 209.163 42.1713L215.868 42.1713L215.955 38.0701C215.968 37.4298 215.86 36.8328 215.631 36.2791C215.403 35.708 215.086 35.2148 214.683 34.7995C214.279 34.3842 213.796 34.0554 213.233 33.8132C212.688 33.5709 212.098 33.4498 211.462 33.4498L209.605 33.4498C208.968 33.4498 208.364 33.5709 207.792 33.8132C207.236 34.0554 206.748 34.3842 206.327 34.7995C205.905 35.2148 205.568 35.708 205.315 36.2791C205.063 36.8328 204.93 37.4298 204.916 38.0701L204.896 39.0305L201.735 38.5114L201.74 38.2518C201.763 37.1789 201.982 36.1666 202.398 35.2148C202.83 34.2631 203.407 33.4325 204.127 32.723C204.847 32.0135 205.684 31.4597 206.638 31.0617C207.592 30.6464 208.602 30.4387 209.668 30.4387L211.525 30.4387C212.591 30.4387 213.593 30.6464 214.529 31.0617C215.467 31.4597 216.28 32.0135 216.97 32.723C217.66 33.4325 218.193 34.2631 218.568 35.2148C218.961 36.1666 219.146 37.1789 219.123 38.2518L218.716 57.5378L217.658 57.5378ZM215.815 44.6632L209.11 44.6632C208.474 44.6632 207.869 44.7843 207.297 45.0266C206.742 45.2688 206.253 45.6063 205.831 46.0389C205.41 46.4542 205.073 46.9474 204.82 47.5184C204.568 48.0722 204.435 48.6692 204.421 49.3095L204.398 50.4256C204.384 51.0659 204.492 51.6715 204.72 52.2426C204.949 52.7963 205.266 53.2809 205.67 53.6962C206.074 54.1115 206.548 54.4403 207.093 54.6826C207.655 54.9248 208.255 55.046 208.891 55.046L211.006 55.046C211.642 55.046 212.237 54.9248 212.793 54.6826C213.365 54.4403 213.862 54.1115 214.284 53.6962C214.705 53.2809 215.042 52.7963 215.294 52.2426C215.547 51.6715 215.68 51.0659 215.694 50.4256L215.815 44.6632ZM243.359 50.789C243.336 51.8619 243.101 52.8483 242.652 53.7481C242.203 54.6306 241.603 55.392 240.85 56.0323C240.097 56.6726 239.227 57.1744 238.239 57.5378C237.269 57.8839 236.251 58.057 235.185 58.057L233.07 58.057C232.004 58.057 230.985 57.858 230.013 57.4599C229.059 57.0446 228.22 56.4822 227.496 55.7727C226.789 55.0633 226.222 54.2326 225.795 53.2809C225.385 52.3291 225.191 51.3168 225.214 50.2439L225.237 49.1797L228.42 48.6605L228.383 50.4256C228.369 51.0659 228.485 51.6715 228.731 52.2426C228.994 52.7963 229.345 53.2809 229.783 53.6962C230.222 54.1115 230.731 54.4403 231.31 54.6826C231.89 54.9248 232.497 55.046 233.133 55.046L235.248 55.046C235.884 55.046 236.497 54.9508 237.085 54.7604C237.674 54.5701 238.195 54.3019 238.65 53.9558C239.122 53.5924 239.492 53.1597 239.76 52.6579C240.046 52.1561 240.196 51.585 240.209 50.9448C240.229 49.993 240.039 49.2143 239.64 48.6086C239.24 48.003 238.7 47.5011 238.021 47.1031C237.359 46.6878 236.592 46.3504 235.721 46.0908C234.867 45.8139 233.987 45.5457 233.082 45.2861C232.176 45.0093 231.289 44.6978 230.419 44.3517C229.567 44.0056 228.803 43.5557 228.127 43.0019C227.468 42.4309 226.942 41.7214 226.547 40.8734C226.152 40.0255 225.968 38.9699 225.995 37.7067C226.017 36.6338 226.244 35.6561 226.676 34.7736C227.107 33.8737 227.682 33.1037 228.401 32.4634C229.119 31.8231 229.946 31.3299 230.882 30.9838C231.835 30.6204 232.845 30.4387 233.911 30.4387L235.768 30.4387C236.834 30.4387 237.835 30.6464 238.772 31.0617C239.709 31.4597 240.523 32.0135 241.213 32.723C241.903 33.4325 242.436 34.2631 242.811 35.2148C243.203 36.1666 243.388 37.1789 243.366 38.2518L243.364 38.3556L240.18 38.8748L240.197 38.0701C240.211 37.4298 240.103 36.8328 239.874 36.2791C239.645 35.708 239.329 35.2148 238.925 34.7995C238.521 34.3842 238.038 34.0554 237.476 33.8132C236.931 33.5709 236.34 33.4498 235.704 33.4498L233.847 33.4498C233.211 33.4498 232.607 33.5449 232.036 33.7353C231.482 33.9256 230.995 34.2025 230.574 34.5659C230.154 34.912 229.819 35.336 229.567 35.8378C229.316 36.3396 229.184 36.9107 229.17 37.551C229.151 38.4681 229.341 39.2209 229.741 39.8092C230.142 40.3803 230.673 40.8648 231.336 41.2628C232.015 41.6608 232.781 41.9982 233.635 42.2751C234.507 42.5347 235.386 42.8116 236.274 43.1057C237.18 43.3826 238.058 43.7028 238.91 44.0662C239.779 44.4296 240.543 44.8968 241.202 45.4678C241.877 46.0389 242.412 46.757 242.807 47.6223C243.202 48.4702 243.386 49.5258 243.359 50.789ZM258.923 57.5378C257.96 57.5378 257.052 57.3561 256.2 56.9927C255.366 56.6293 254.637 56.1275 254.014 55.4872C253.409 54.8469 252.926 54.1028 252.566 53.2549C252.222 52.407 252.061 51.4985 252.081 50.5294L252.431 33.9949L247.685 33.9949L247.749 30.9579L252.495 30.9579L252.63 24.5725L255.813 24.0533L255.667 30.9579L262.372 30.9579L262.308 33.9949L255.603 33.9949L255.25 50.6852C255.239 51.2216 255.323 51.7235 255.502 52.1907C255.699 52.6406 255.966 53.0386 256.302 53.3847C256.639 53.7308 257.037 54.0077 257.497 54.2153C257.957 54.4057 258.454 54.5009 258.987 54.5009L261.875 54.5009L261.811 57.5378L258.923 57.5378ZM284.249 57.5378L282.551 54.8902C281.809 55.842 280.89 56.612 279.794 57.2004C278.699 57.7714 277.506 58.057 276.217 58.057L275.417 58.057C274.351 58.057 273.35 57.858 272.413 57.4599C271.476 57.0446 270.662 56.4822 269.972 55.7727C269.282 55.0633 268.741 54.2326 268.349 53.2809C267.973 52.3291 267.797 51.3168 267.819 50.2439L267.825 49.9843C267.848 48.9115 268.067 47.8991 268.482 46.9474C268.915 45.9956 269.491 45.165 270.211 44.4555C270.931 43.746 271.768 43.1923 272.722 42.7943C273.677 42.379 274.687 42.1713 275.753 42.1713L282.458 42.1713L282.545 38.0701C282.558 37.4298 282.451 36.8328 282.222 36.2791C281.993 35.708 281.677 35.2148 281.273 34.7995C280.869 34.3842 280.386 34.0554 279.824 33.8132C279.279 33.5709 278.688 33.4498 278.052 33.4498L276.195 33.4498C275.559 33.4498 274.954 33.5709 274.382 33.8132C273.827 34.0554 273.338 34.3842 272.917 34.7995C272.495 35.2148 272.158 35.708 271.906 36.2791C271.653 36.8328 271.52 37.4298 271.507 38.0701L271.486 39.0305L268.325 38.5114L268.331 38.2518C268.353 37.1789 268.572 36.1666 268.988 35.2148C269.421 34.2631 269.997 33.4325 270.717 32.723C271.437 32.0135 272.274 31.4597 273.228 31.0617C274.182 30.6464 275.192 30.4387 276.258 30.4387L278.115 30.4387C279.181 30.4387 280.183 30.6464 281.12 31.0617C282.057 31.4597 282.87 32.0135 283.56 32.723C284.25 33.4325 284.783 34.2631 285.158 35.2148C285.551 36.1666 285.736 37.1789 285.713 38.2518L285.306 57.5378L284.249 57.5378ZM282.406 44.6632L275.7 44.6632C275.064 44.6632 274.46 44.7843 273.887 45.0266C273.332 45.2688 272.843 45.6063 272.422 46.0389C272 46.4542 271.663 46.9474 271.41 47.5184C271.158 48.0722 271.025 48.6692 271.011 49.3095L270.988 50.4256C270.974 51.0659 271.082 51.6715 271.311 52.2426C271.54 52.7963 271.856 53.2809 272.26 53.6962C272.664 54.1115 273.138 54.4403 273.683 54.6826C274.246 54.9248 274.845 55.046 275.481 55.046L277.596 55.046C278.232 55.046 278.828 54.9248 279.383 54.6826C279.955 54.4403 280.452 54.1115 280.874 53.6962C281.295 53.2809 281.632 52.7963 281.885 52.2426C282.137 51.6715 282.27 51.0659 282.284 50.4256L282.406 44.6632ZM299.91 33.9949C299.274 33.9949 298.67 34.116 298.097 34.3582C297.542 34.6005 297.054 34.9293 296.632 35.3446C296.211 35.7599 295.874 36.2531 295.621 36.8242C295.369 37.3779 295.236 37.9749 295.222 38.6152L294.823 57.5378L291.65 57.5378L292.212 30.9579L293.269 30.9579L294.94 33.6574C295.683 32.671 296.602 31.8923 297.697 31.3213C298.81 30.7329 300.011 30.4387 301.301 30.4387L303.158 30.4387L303.082 33.9949L299.91 33.9949ZM316.435 57.5378C315.472 57.5378 314.564 57.3561 313.712 56.9927C312.878 56.6293 312.149 56.1275 311.526 55.4872C310.921 54.8469 310.438 54.1028 310.078 53.2549C309.734 52.407 309.573 51.4985 309.594 50.5294L309.943 33.9949L305.197 33.9949L305.261 30.9579L310.007 30.9579L310.142 24.5725L313.325 24.0533L313.179 30.9579L319.884 30.9579L319.82 33.9949L313.115 33.9949L312.762 50.6852C312.751 51.2216 312.835 51.7235 313.014 52.1907C313.211 52.6406 313.478 53.0386 313.814 53.3847C314.151 53.7308 314.549 54.0077 315.009 54.2153C315.469 54.4057 315.966 54.5009 316.499 54.5009L319.387 54.5009L319.323 57.5378L316.435 57.5378ZM342.972 50.2439C342.949 51.3168 342.722 52.3291 342.289 53.2809C341.873 54.2326 341.306 55.0633 340.586 55.7727C339.866 56.4822 339.029 57.0446 338.074 57.4599C337.12 57.858 336.11 58.057 335.044 58.057L332.929 58.057C331.863 58.057 330.862 57.858 329.925 57.4599C328.988 57.0446 328.174 56.4822 327.484 55.7727C326.794 55.0633 326.253 54.2326 325.861 53.2809C325.485 52.3291 325.309 51.3168 325.332 50.2439L325.585 38.2518C325.607 37.1789 325.827 36.1666 326.242 35.2148C326.675 34.2631 327.251 33.4325 327.971 32.723C328.691 32.0135 329.528 31.4597 330.482 31.0617C331.436 30.6464 332.447 30.4387 333.513 30.4387L335.627 30.4387C336.693 30.4387 337.695 30.6464 338.632 31.0617C339.569 31.4597 340.382 32.0135 341.072 32.723C341.762 33.4325 342.295 34.2631 342.67 35.2148C343.063 36.1666 343.248 37.1789 343.225 38.2518L343.093 44.5074L328.625 44.5074L328.5 50.4256C328.486 51.0659 328.594 51.6715 328.823 52.2426C329.052 52.7963 329.368 53.2809 329.772 53.6962C330.176 54.1115 330.65 54.4403 331.195 54.6826C331.758 54.9248 332.357 55.046 332.993 55.046L335.108 55.046C335.744 55.046 336.34 54.9248 336.895 54.6826C337.467 54.4403 337.964 54.1115 338.386 53.6962C338.807 53.2809 339.144 52.7963 339.397 52.2426C339.649 51.6715 339.782 51.0659 339.796 50.4256L339.833 48.6605L342.994 49.1797L342.972 50.2439ZM340.057 38.0701C340.07 37.4298 339.963 36.8328 339.734 36.2791C339.505 35.708 339.189 35.2148 338.785 34.7995C338.381 34.3842 337.898 34.0554 337.336 33.8132C336.791 33.5709 336.2 33.4498 335.564 33.4498L333.449 33.4498C332.813 33.4498 332.209 33.5709 331.636 33.8132C331.081 34.0554 330.592 34.3842 330.171 34.7995C329.75 35.2148 329.412 35.708 329.16 36.2791C328.907 36.8328 328.774 37.4298 328.761 38.0701L328.677 42.0156L339.974 42.0156L340.057 38.0701ZM357.422 33.9949C356.786 33.9949 356.182 34.116 355.609 34.3582C355.054 34.6005 354.566 34.9293 354.144 35.3446C353.723 35.7599 353.386 36.2531 353.133 36.8242C352.881 37.3779 352.748 37.9749 352.734 38.6152L352.335 57.5378L349.162 57.5378L349.724 30.9579L350.781 30.9579L352.452 33.6574C353.195 32.671 354.114 31.8923 355.209 31.3213C356.322 30.7329 357.523 30.4387 358.813 30.4387L360.67 30.4387L360.595 33.9949L357.422 33.9949Z" fill="white"/>
<path fill-rule="evenodd" clip-rule="evenodd" d="M20.6008 26.9923C20.1318 26.6933 19.6621 26.4241 19.1924 26.155L19.5426 9.56914C19.6458 4.68508 15.788 0.718018 10.9353 0.718018C6.0826 0.718018 2.05728 4.68508 1.95415 9.56914L1.54691 28.8562C1.52184 29.1054 1.50647 29.3645 1.501 29.6237C1.47469 30.8696 1.52782 32.1056 1.6507 33.3216C5.13828 45.9105 14.9937 46.7777 23.9562 42.5615C32.0585 38.7439 44.7754 24.1615 50.4605 17.573C42.8936 24.64 35.6722 36.4514 20.601 26.9823L20.6008 26.9923Z" fill="#6AE6FE"/>
<path d="M73.511 8.85137C73.6142 3.96303 69.7605 0.000244135 64.9036 0.000244137C60.0467 0.000244139 56.0257 3.96303 55.9225 8.85137L54.6126 70.8889C54.5094 75.7772 58.363 79.74 63.2199 79.74C68.0769 79.74 72.0978 75.7772 72.2011 70.8889L73.511 8.85137Z" fill="url(#paint0_linear_4_2600)"/>
<path d="M19.1291 68.1082C19.2323 63.2199 15.3787 59.2571 10.5218 59.2571C5.66485 59.2571 1.64387 63.2199 1.54065 68.1082L1.48193 70.8891C1.37872 75.7775 5.23236 79.7402 10.0893 79.7402C14.9462 79.7402 18.9672 75.7775 19.0704 70.8891L19.1291 68.1082Z" fill="#245DD8"/>
<path fill-rule="evenodd" clip-rule="evenodd" d="M73.9968 29.494C73.6169 47.4853 57.1068 62.0777 37.1118 62.0777C17.1168 62.0777 1.22289 47.4853 1.60277 29.494C1.77366 21.4004 11.3789 20.9818 20.7028 26.8526C41.0517 39.6409 47.0877 13.6158 58.9971 12.8882C70.1032 12.2104 74.1565 21.9287 73.9968 29.494Z" fill="url(#paint1_linear_4_2600)"/>
<path fill-rule="evenodd" clip-rule="evenodd" d="M69.0651 45.3919C62.6555 55.3395 50.6888 62.0675 37.1112 62.0675C20.4437 62.0675 6.62462 51.9306 2.70694 38.1356C15.5815 67.6792 43.7873 43.7174 55.6101 35.8331C58.533 33.8895 62.2082 32.9027 65.0539 33.6801C69.0912 34.7766 71.4582 39.4613 69.055 45.4019" fill="#8BE3FB"/>
<path fill-rule="evenodd" clip-rule="evenodd" d="M69.0659 45.3922C67.3765 48.0137 65.3156 50.4059 62.9241 52.509C68.0057 46.8276 68.7363 42.711 67.8719 40.0298C64.7765 30.441 49.1079 42.2326 44.6999 45.0932C33.9357 52.0904 23.2836 52.3695 23.2836 52.3695C35.381 51.1833 48.4692 40.5879 55.6111 35.8235C58.5341 33.8798 62.2093 32.893 65.0549 33.6705C69.0922 34.7669 71.4592 39.4516 69.056 45.3922" fill="#C1FFFD"/>
<path fill-rule="evenodd" clip-rule="evenodd" d="M1.75268 33.1821C1.6298 31.966 1.57646 30.74 1.60298 29.4841C1.77387 21.3906 11.3791 20.9719 20.703 26.8428C35.7742 36.3119 42.9857 24.5004 50.5624 17.4335C44.8776 24.012 32.1605 38.6044 24.0582 42.4219C15.0957 46.6382 5.25017 45.771 1.75268 33.1821Z" fill="url(#paint2_linear_4_2600)"/>
<path fill-rule="evenodd" clip-rule="evenodd" d="M68.698 20.1047C56.656 8.82151 46.2184 26.145 38.8385 33.2717C30.2556 41.5547 20.1608 47.8043 10.575 44.0167C14.6555 45.4121 19.4662 44.5848 24.0575 42.4219C32.1599 38.6043 44.8768 24.0219 50.5618 17.4334C43.0051 24.4904 35.7942 36.2719 20.7808 26.8826C41.0627 39.5612 47.0974 13.5959 58.9969 12.8683C70.103 12.1905 74.1563 21.9088 73.9966 29.4741C73.9806 30.2317 73.9351 30.9792 73.8601 31.7168C73.8601 31.7168 73.1557 24.2711 68.6883 20.0947" fill="#C1FFFD"/>
<path fill-rule="evenodd" clip-rule="evenodd" d="M65.1083 33.5007C62.2528 32.7233 58.5875 33.7101 55.6645 35.6537C43.8417 43.538 15.6359 67.4998 2.76135 37.9562L1.80692 32.9725L1.80607 33.0123C4.30031 43.3984 10.2501 48.1928 15.9732 50.1165C23.7515 52.738 36.8274 46.9469 45.533 40.8268C50.7704 37.1488 59.9681 27.8891 66.5822 33.112C72.0372 37.418 69.6043 43.8271 69.6043 43.8271C71.1318 38.5543 68.8306 34.5075 65.1182 33.5007" fill="#245DD8"/>
<path fill-rule="evenodd" clip-rule="evenodd" d="M1.75307 33.1522C1.88645 33.4014 11.6224 51.6518 29.8498 30.3015C39.071 31.1886 44.7128 22.8956 50.5622 17.4335C44.8774 24.012 32.1603 38.6044 24.0579 42.4219C15.0954 46.6382 5.24993 45.771 1.75244 33.1821L1.75307 33.1522Z" fill="#245DD8"/>
<defs>
<linearGradient id="paint0_linear_4_2600" x1="63.3422" y1="73.9489" x2="63.3422" y2="4.14671" gradientUnits="userSpaceOnUse">
<stop offset="0.13" stop-color="#245DD8"/>
<stop offset="0.39" stop-color="#2560DA"/>
<stop offset="0.63" stop-color="#2B6BE1"/>
<stop offset="0.86" stop-color="#337EEC"/>
<stop offset="1" stop-color="#3B8DF6"/>
</linearGradient>
<linearGradient id="paint1_linear_4_2600" x1="11.1786" y1="16.3968" x2="61.9779" y2="48.2724" gradientUnits="userSpaceOnUse">
<stop stop-color="#6AE6FE"/>
<stop offset="0.23" stop-color="#68E2FD"/>
<stop offset="0.43" stop-color="#62D7FC"/>
<stop offset="0.63" stop-color="#58C4FB"/>
<stop offset="0.83" stop-color="#4AAAF8"/>
<stop offset="1" stop-color="#3B8DF6"/>
</linearGradient>
<linearGradient id="paint2_linear_4_2600" x1="1.56951" y1="31.069" x2="50.2528" y2="32.0969" gradientUnits="userSpaceOnUse">
<stop stop-color="#6AE6FE"/>
<stop offset="0.17" stop-color="#68E2FD"/>
<stop offset="0.33" stop-color="#62D7FC"/>
<stop offset="0.48" stop-color="#58C4FB"/>
<stop offset="0.63" stop-color="#4AAAF8"/>
<stop offset="0.76" stop-color="#3B8DF6"/>
</linearGradient>
</defs>
</svg>
