<svg width="244" height="48" viewBox="0 0 244 48" fill="none" xmlns="http://www.w3.org/2000/svg">
<path d="M74.151 33.4937L74.2228 23.8992L66.1811 23.8401L66.1093 33.4346L64.2197 33.4207L64.3769 12.4154L66.2665 12.4293L66.1946 22.0384L74.2363 22.0975L74.3082 12.4884L76.1978 12.5023L76.0406 33.5076L74.151 33.4937ZM82.6459 39.5621L80.9028 39.5493L83.6233 32.2742L78.8628 18.5279L80.6645 18.5412L84.4905 29.9368L84.5432 30.7136L84.6076 29.9376L88.5891 18.5994L90.3908 18.6127L82.6459 39.5621ZM101.514 33.6948L100.529 32.1641C100.115 32.7177 99.5986 33.1583 98.9809 33.4858C98.3633 33.8035 97.6883 33.9597 96.9559 33.9543L96.5018 33.951C95.8963 33.9465 95.3259 33.83 94.7905 33.6015C94.2551 33.3632 93.7888 33.0423 93.3914 32.639C92.994 32.2357 92.6801 31.7646 92.4498 31.2258C92.2292 30.6871 92.1212 30.115 92.1257 29.5095L92.1763 22.7421C92.1809 22.1367 92.2975 21.5662 92.5261 21.0308C92.7645 20.4954 93.0853 20.029 93.4887 19.6316C93.8921 19.2341 94.3632 18.9251 94.902 18.7044C95.4408 18.474 96.013 18.361 96.6184 18.3655L97.0725 18.3688C97.7463 18.3738 98.3703 18.5151 98.9444 18.7927C99.5185 19.0704 100.009 19.4549 100.415 19.9462L100.47 12.6807L102.271 12.694L102.114 33.6993L101.514 33.6948ZM100.395 22.7C100.397 22.3387 100.332 22.0013 100.197 21.6878C100.063 21.3645 99.8794 21.0848 99.6468 20.8487C99.4142 20.6126 99.1372 20.4251 98.816 20.286C98.5045 20.147 98.1681 20.0761 97.8068 20.0735L96.6057 20.0646C96.2444 20.062 95.9021 20.1278 95.5788 20.2622C95.2653 20.3966 94.9905 20.5801 94.7543 20.8128C94.5182 21.0454 94.3306 21.3224 94.1915 21.6436C94.0524 21.9551 93.9815 22.2915 93.9788 22.6528L93.9266 29.6253C93.9239 29.9866 93.9897 30.3289 94.124 30.6522C94.2584 30.9657 94.4419 31.2404 94.6745 31.4765C94.9071 31.7126 95.1792 31.9002 95.4907 32.0392C95.8119 32.1783 96.1532 32.2491 96.5145 32.2518L97.7156 32.2606C98.0769 32.2633 98.4144 32.1974 98.7279 32.063C99.0511 31.9286 99.3309 31.7452 99.567 31.5125C99.8031 31.2799 99.9907 31.0078 100.13 30.6963C100.269 30.3751 100.34 30.0338 100.342 29.6725L100.395 22.7ZM110.226 20.4724C109.865 20.4698 109.522 20.5356 109.199 20.6699C108.886 20.8044 108.611 20.9879 108.375 21.2205C108.139 21.4532 107.951 21.7301 107.812 22.0514C107.673 22.3629 107.602 22.6993 107.599 23.0606L107.519 33.739L105.718 33.7258L105.83 18.7262L106.43 18.7306L107.4 20.2612C107.815 19.7076 108.331 19.2719 108.948 18.9542C109.576 18.6268 110.256 18.4657 110.988 18.4711L112.043 18.4789L112.028 20.4857L110.226 20.4724ZM123.749 33.8583L122.764 32.3569C122.35 32.891 121.834 33.3218 121.217 33.6493C120.599 33.967 119.924 34.1232 119.192 34.1178L118.737 34.1145C118.132 34.11 117.562 33.9935 117.026 33.7649C116.491 33.5266 116.024 33.2058 115.627 32.8025C115.23 32.3992 114.916 31.9281 114.686 31.3893C114.465 30.8505 114.357 30.2784 114.361 29.673L114.363 29.5265C114.367 28.921 114.484 28.3506 114.712 27.8152C114.951 27.2798 115.272 26.8134 115.675 26.4159C116.078 26.0185 116.549 25.7095 117.088 25.4888C117.627 25.2584 118.199 25.1454 118.805 25.1499L122.613 25.1779L122.63 22.8635C122.633 22.5022 122.567 22.1647 122.433 21.8512C122.299 21.528 122.115 21.2483 121.883 21.0122C121.65 20.7761 121.373 20.5885 121.052 20.4495C120.74 20.3104 120.404 20.2396 120.043 20.237L118.988 20.2292C118.627 20.2265 118.284 20.2924 117.961 20.4267C117.647 20.5612 117.373 20.7447 117.137 20.9773C116.9 21.21 116.713 21.4869 116.574 21.8082C116.435 22.1197 116.364 22.4561 116.361 22.8174L116.357 23.3594L114.557 23.0531L114.559 22.9067C114.563 22.3012 114.68 21.7308 114.908 21.1953C115.147 20.66 115.468 20.1936 115.871 19.7961C116.274 19.3987 116.745 19.0896 117.284 18.869C117.823 18.6386 118.395 18.5256 119.001 18.53L120.055 18.5378C120.661 18.5422 121.231 18.6636 121.766 18.9019C122.302 19.1305 122.768 19.4464 123.166 19.8497C123.563 20.2531 123.872 20.7241 124.093 21.2628C124.323 21.8017 124.436 22.3738 124.431 22.9793L124.35 33.8627L123.749 33.8583ZM122.603 26.5841L118.794 26.5561C118.433 26.5534 118.09 26.6193 117.767 26.7536C117.454 26.888 117.179 27.0764 116.943 27.3188C116.706 27.5515 116.519 27.8284 116.38 28.1497C116.241 28.4612 116.17 28.7976 116.167 29.1589L116.162 29.7888C116.16 30.1501 116.225 30.4924 116.36 30.8156C116.494 31.1291 116.678 31.4039 116.91 31.64C117.143 31.8761 117.415 32.0637 117.726 32.2027C118.048 32.3418 118.389 32.4126 118.75 32.4153L119.951 32.4241C120.313 32.4268 120.65 32.3609 120.964 32.2265C121.287 32.0921 121.567 31.9086 121.803 31.676C122.039 31.4433 122.226 31.1713 122.365 30.8598C122.505 30.5385 122.576 30.1972 122.578 29.8359L122.603 26.5841ZM138.294 30.1566C138.289 30.762 138.163 31.3177 137.915 31.8237C137.667 32.32 137.332 32.7472 136.91 33.1054C136.487 33.4637 135.997 33.7433 135.438 33.9443C134.89 34.1355 134.313 34.229 133.708 34.2245L132.507 34.2157C131.901 34.2112 131.321 34.0947 130.766 33.866C130.221 33.6276 129.74 33.3066 129.323 32.9032C128.916 32.4998 128.587 32.0286 128.337 31.4896C128.097 30.9508 127.98 30.3786 127.984 29.7731L127.989 29.1726L129.793 28.8929L129.785 29.8889C129.782 30.2502 129.853 30.5926 129.997 30.9159C130.151 31.2295 130.354 31.5045 130.606 31.7407C130.858 31.9769 131.15 32.1646 131.481 32.3038C131.812 32.4429 132.158 32.5139 132.519 32.5165L133.721 32.5253C134.082 32.528 134.429 32.4768 134.762 32.3719C135.095 32.2669 135.389 32.1177 135.644 31.9242C135.909 31.7211 136.116 31.4785 136.265 31.1964C136.423 30.9143 136.504 30.5926 136.506 30.2313C136.51 29.6942 136.396 29.2539 136.165 28.9104C135.933 28.5669 135.622 28.2814 135.234 28.0539C134.854 27.8168 134.416 27.6231 133.919 27.473C133.432 27.3131 132.931 27.1581 132.414 27.0078C131.898 26.8477 131.391 26.6682 130.895 26.4692C130.408 26.2704 129.97 26.0132 129.582 25.6979C129.204 25.3728 128.899 24.9702 128.668 24.4899C128.437 24.0097 128.325 23.4132 128.33 22.7003C128.335 22.0948 128.456 21.544 128.694 21.0476C128.932 20.5416 129.253 20.1093 129.656 19.751C130.059 19.3926 130.525 19.1177 131.054 18.9263C131.592 18.7251 132.164 18.6268 132.77 18.6313L133.824 18.639C134.43 18.6435 135 18.7648 135.536 19.0032C136.071 19.2317 136.537 19.5477 136.935 19.951C137.332 20.3543 137.641 20.8253 137.862 21.3641C138.092 21.9029 138.205 22.475 138.2 23.0805L138.2 23.1391L136.396 23.4188L136.4 22.9647C136.402 22.6034 136.336 22.266 136.202 21.9525C136.068 21.6292 135.884 21.3495 135.652 21.1135C135.419 20.8774 135.142 20.6898 134.821 20.5507C134.509 20.4117 134.173 20.3408 133.812 20.3382L132.757 20.3304C132.396 20.3278 132.054 20.379 131.73 20.484C131.417 20.5891 131.143 20.7434 130.907 20.9467C130.671 21.1403 130.484 21.3782 130.345 21.6604C130.206 21.9426 130.135 22.2643 130.132 22.6256C130.129 23.1432 130.243 23.5689 130.474 23.9026C130.706 24.2266 131.012 24.5023 131.391 24.7297C131.78 24.9572 132.218 25.1508 132.705 25.3107C133.202 25.4608 133.704 25.6207 134.21 25.7905C134.727 25.9505 135.228 26.1349 135.715 26.3436C136.212 26.5523 136.649 26.8192 137.027 27.1442C137.416 27.4694 137.725 27.8769 137.956 28.3669C138.187 28.8471 138.299 29.4437 138.294 30.1566ZM147.186 34.0306C146.639 34.0266 146.123 33.9203 145.636 33.7116C145.159 33.503 144.741 33.2167 144.382 32.8528C144.034 32.4889 143.754 32.0669 143.542 31.5868C143.341 31.1068 143.242 30.5933 143.246 30.0465L143.316 20.7157L140.621 20.6959L140.634 18.9821L143.329 19.0019L143.356 15.3985L145.16 15.1187L145.131 19.0151L148.939 19.0431L148.926 20.7569L145.118 20.7289L145.047 30.1476C145.045 30.4503 145.097 30.7339 145.202 30.9984C145.317 31.2531 145.472 31.4789 145.666 31.6756C145.86 31.8724 146.088 32.0303 146.351 32.1494C146.613 32.2588 146.896 32.3146 147.199 32.3168L148.84 32.3289L148.827 34.0427L147.186 34.0306ZM161.571 34.1364L160.586 32.635C160.172 33.169 159.656 33.5998 159.038 33.9273C158.42 34.2451 157.745 34.4012 157.013 34.3959L156.559 34.3925C155.953 34.3881 155.383 34.2716 154.847 34.043C154.312 33.8047 153.846 33.4839 153.448 33.0805C153.051 32.6772 152.737 32.2062 152.507 31.6673C152.286 31.1286 152.178 30.5565 152.183 29.951L152.184 29.8046C152.188 29.1991 152.305 28.6287 152.533 28.0932C152.772 27.5578 153.093 27.0914 153.496 26.694C153.9 26.2966 154.371 25.9875 154.909 25.7669C155.448 25.5365 156.02 25.4235 156.626 25.4279L160.434 25.4559L160.452 23.1415C160.454 22.7802 160.389 22.4428 160.254 22.1293C160.12 21.8061 159.936 21.5264 159.704 21.2903C159.471 21.0542 159.194 20.8666 158.873 20.7275C158.562 20.5885 158.225 20.5177 157.864 20.515L156.809 20.5073C156.448 20.5046 156.106 20.5705 155.782 20.7048C155.469 20.8392 155.194 21.0227 154.958 21.2554C154.722 21.488 154.534 21.765 154.395 22.0862C154.256 22.3977 154.185 22.7341 154.182 23.0954L154.178 23.6374L152.379 23.3312L152.38 23.1847C152.384 22.5793 152.501 22.0088 152.73 21.4734C152.968 20.938 153.289 20.4716 153.692 20.0742C154.096 19.6767 154.567 19.3677 155.105 19.147C155.644 18.9166 156.216 18.8036 156.822 18.8081L157.877 18.8158C158.482 18.8203 159.052 18.9417 159.588 19.18C160.123 19.4085 160.59 19.7245 160.987 20.1278C161.384 20.5311 161.693 21.0022 161.914 21.5409C162.144 22.0797 162.257 22.6519 162.253 23.2573L162.171 34.1408L161.571 34.1364ZM160.424 26.8621L156.615 26.8341C156.254 26.8315 155.912 26.8973 155.588 27.0317C155.275 27.1661 155 27.3545 154.764 27.5969C154.528 27.8296 154.34 28.1065 154.201 28.4278C154.062 28.7392 153.991 29.0756 153.988 29.437L153.984 30.0668C153.981 30.4281 154.047 30.7704 154.181 31.0937C154.315 31.4072 154.499 31.682 154.731 31.9181C154.964 32.1542 155.236 32.3417 155.548 32.4807C155.869 32.6198 156.21 32.6907 156.571 32.6933L157.773 32.7022C158.134 32.7048 158.471 32.639 158.785 32.5045C159.108 32.3702 159.388 32.1867 159.624 31.954C159.86 31.7214 160.048 31.4493 160.187 31.1378C160.326 30.8166 160.397 30.4753 160.399 30.114L160.424 26.8621ZM170.283 20.9139C169.922 20.9113 169.579 20.9771 169.256 21.1115C168.943 21.2459 168.668 21.4294 168.432 21.6621C168.196 21.8947 168.008 22.1717 167.869 22.4929C167.73 22.8044 167.659 23.1408 167.656 23.5021L167.576 34.1805L165.775 34.1673L165.887 19.1677L166.487 19.1721L167.457 20.7027C167.872 20.1491 168.388 19.7135 169.005 19.3957C169.633 19.0683 170.313 18.9073 171.045 18.9127L172.1 18.9204L172.085 20.9272L170.283 20.9139ZM179.851 34.2708C179.304 34.2668 178.788 34.1604 178.301 33.9518C177.824 33.7432 177.406 33.4569 177.048 33.0929C176.699 32.729 176.419 32.307 176.207 31.8269C176.006 31.3469 175.907 30.8335 175.911 30.2866L175.981 20.9558L173.286 20.936L173.299 19.2222L175.994 19.242L176.021 15.6386L177.825 15.3589L177.796 19.2553L181.604 19.2833L181.591 20.9971L177.783 20.9691L177.712 30.3878C177.71 30.6905 177.762 30.9741 177.867 31.2385C177.982 31.4933 178.137 31.7191 178.331 31.9158C178.525 32.1125 178.753 32.2705 179.016 32.3896C179.279 32.4989 179.561 32.5547 179.864 32.557L181.505 32.569L181.492 34.2828L179.851 34.2708ZM194.867 30.2649C194.863 30.8703 194.741 31.4407 194.503 31.9761C194.274 32.5115 193.958 32.978 193.555 33.3754C193.151 33.7728 192.68 34.0868 192.141 34.3172C191.603 34.5379 191.03 34.646 190.425 34.6415L189.224 34.6327C188.618 34.6282 188.048 34.5117 187.513 34.2832C186.977 34.0448 186.511 33.724 186.113 33.3207C185.716 32.9174 185.402 32.4463 185.172 31.9075C184.951 31.3687 184.843 30.7966 184.848 30.1912L184.898 23.4238C184.903 22.8184 185.02 22.2479 185.248 21.7125C185.487 21.1771 185.807 20.7107 186.211 20.3133C186.614 19.9158 187.085 19.6068 187.624 19.3861C188.163 19.1557 188.735 19.0427 189.341 19.0472L190.542 19.056C191.147 19.0605 191.717 19.1818 192.253 19.4202C192.788 19.6487 193.255 19.9646 193.652 20.368C194.049 20.7713 194.358 21.2423 194.579 21.7811C194.809 22.3199 194.922 22.892 194.918 23.4975L194.891 27.0276L186.674 26.9672L186.649 30.307C186.646 30.6683 186.712 31.0106 186.846 31.3339C186.981 31.6473 187.164 31.9221 187.397 32.1582C187.629 32.3943 187.901 32.5819 188.213 32.7209C188.534 32.86 188.875 32.9308 189.237 32.9335L190.438 32.9423C190.799 32.945 191.136 32.8791 191.45 32.7447C191.773 32.6103 192.053 32.4268 192.289 32.1942C192.525 31.9616 192.713 31.6895 192.852 31.378C192.991 31.0568 193.062 30.7155 193.065 30.3542L193.072 29.3581L194.872 29.6643L194.867 30.2649ZM193.117 23.3817C193.119 23.0204 193.054 22.683 192.919 22.3695C192.785 22.0462 192.601 21.7665 192.369 21.5304C192.136 21.2943 191.859 21.1068 191.538 20.9677C191.227 20.8287 190.89 20.7578 190.529 20.7552L189.328 20.7463C188.966 20.7437 188.624 20.8095 188.301 20.9439C187.987 21.0783 187.713 21.2618 187.476 21.4945C187.24 21.7271 187.053 22.0041 186.914 22.3253C186.775 22.6368 186.704 22.9732 186.701 23.3345L186.684 25.561L193.1 25.6082L193.117 23.3817ZM202.948 21.1541C202.587 21.1514 202.245 21.2173 201.921 21.3516C201.608 21.4861 201.333 21.6696 201.097 21.9022C200.861 22.1349 200.673 22.4118 200.534 22.7331C200.395 23.0446 200.324 23.381 200.321 23.7423L200.241 34.4207L198.44 34.4074L198.552 19.4079L199.153 19.4123L200.123 20.9429C200.537 20.3893 201.053 19.9536 201.67 19.6359C202.298 19.3085 202.978 19.1474 203.71 19.1528L204.765 19.1606L204.75 21.1673L202.948 21.1541Z" fill="white"/>
<path fill-rule="evenodd" clip-rule="evenodd" d="M11.1358 16.2629C10.8647 16.0922 10.5935 15.9383 10.3222 15.7844L10.3929 6.42402C10.4137 3.66765 8.17204 1.41234 5.39141 1.39207C2.61078 1.37181 0.335326 3.5942 0.314516 6.35057L0.232337 17.2354C0.219926 17.376 0.213147 17.5222 0.212043 17.6685C0.206734 18.3716 0.246866 19.0695 0.326806 19.7564C2.4239 26.8767 8.07794 27.4074 13.1805 25.0649C17.7933 22.944 24.9659 14.7661 28.1718 11.0709C23.8913 15.0282 19.846 21.6651 11.1359 16.2573L11.1358 16.2629Z" fill="#6AE6FE"/>
<path d="M41.3128 6.24612C41.3336 3.48749 39.0949 1.23474 36.3124 1.21446C33.53 1.19418 31.2575 3.41405 31.2367 6.17267L30.9724 41.1822C30.9516 43.9408 33.1903 46.1936 35.9728 46.2139C38.7552 46.2341 41.0277 44.0143 41.0485 41.2557L41.3128 6.24612Z" fill="url(#paint0_linear_4_7847)"/>
<path d="M10.6157 39.4621C10.6365 36.7034 8.39731 34.4506 5.61429 34.4303C2.83128 34.41 0.558311 36.63 0.537483 39.3887L0.525634 40.9581C0.504806 43.7169 2.744 45.9697 5.52702 45.99C8.31004 46.0103 10.583 43.7903 10.6038 41.0316L10.6157 39.4621Z" fill="#245DD8"/>
<path fill-rule="evenodd" clip-rule="evenodd" d="M41.7532 17.8978C41.6766 28.0516 32.3304 36.2195 20.8729 36.136C9.41537 36.0525 0.193507 27.7493 0.270166 17.5954C0.304652 13.0276 5.80535 12.8314 11.1941 16.1842C22.9547 23.4877 26.2094 8.82275 33.028 8.46177C39.3867 8.12556 41.7855 13.6281 41.7532 17.8978Z" fill="url(#paint1_linear_4_7847)"/>
<path fill-rule="evenodd" clip-rule="evenodd" d="M39.0528 26.8504C35.4579 32.439 28.6533 36.187 20.873 36.1303C11.3221 36.0606 3.32391 30.2807 0.970847 22.4771C8.5799 39.2081 24.5548 25.7996 31.2678 21.3983C32.9275 20.3134 35.0257 19.7717 36.6625 20.2224C38.9845 20.8582 40.3776 23.5126 39.0471 26.856" fill="#8BE3FB"/>
<path fill-rule="evenodd" clip-rule="evenodd" d="M39.0527 26.8507C38.1051 28.3237 36.9429 29.6658 35.5889 30.8433C38.4564 27.6567 38.8429 25.3356 38.3267 23.8182C36.4782 18.3918 27.5919 24.9842 25.0884 26.581C18.9749 30.4869 12.8733 30.6004 12.8733 30.6004C19.796 29.9808 27.2131 24.053 31.2683 21.3926C32.928 20.3074 35.0263 19.7655 36.663 20.2162C38.9849 20.8519 40.3778 23.5066 39.0471 26.8507" fill="#C1FFFD"/>
<path fill-rule="evenodd" clip-rule="evenodd" d="M0.384464 19.6777C0.304522 18.9908 0.264347 18.2985 0.269698 17.5897C0.304184 13.0218 5.80493 12.8256 11.1938 16.1784C19.9041 21.5864 23.9439 14.9493 28.2301 10.9919C25.0242 14.6815 17.8514 22.8654 13.2384 24.9865C8.13577 27.329 2.48728 26.7984 0.384464 19.6777Z" fill="url(#paint2_linear_4_7847)"/>
<path fill-rule="evenodd" clip-rule="evenodd" d="M38.6434 12.5747C31.6553 6.15496 25.8096 15.8917 21.6365 19.8845C16.783 24.5251 11.0474 28.0116 5.52515 25.8336C7.87416 26.6382 10.6243 26.1911 13.2383 24.989C17.8512 22.8674 25.0243 14.6876 28.2304 10.9916C23.9554 14.9443 19.9155 21.5657 11.2395 16.2028C22.96 23.4445 26.2154 8.81078 33.0282 8.44927C39.3868 8.11261 41.7851 13.6158 41.7526 17.8862C41.7494 18.3138 41.7291 18.7356 41.6919 19.1517C41.6919 19.1517 41.2302 14.9453 38.6378 12.5691" fill="#C1FFFD"/>
<path fill-rule="evenodd" clip-rule="evenodd" d="M36.6917 20.1196C35.0493 19.6688 32.9568 20.2108 31.297 21.2962C24.5838 25.699 8.60821 39.1121 1.00034 22.3771L0.414548 19.5592L0.414377 19.5817C1.92465 25.4564 5.37139 28.1882 8.6659 29.2981C13.1435 30.8105 20.5911 27.5947 25.5318 24.1752C28.5042 22.1201 33.7025 16.9297 37.5333 19.9062C40.6927 22.3601 39.3486 25.9689 39.3486 25.9689C40.1827 22.998 38.8325 20.7035 36.6974 20.1196" fill="#245DD8"/>
<path fill-rule="evenodd" clip-rule="evenodd" d="M0.384831 19.6618C0.463205 19.8031 6.18428 30.1464 16.4621 18.1688C21.7528 18.7078 24.9208 14.0495 28.2299 10.9901C25.0238 14.6804 17.8507 22.8657 13.2379 24.9873C8.13522 27.3304 2.48697 26.8001 0.384702 19.6787L0.384831 19.6618Z" fill="#245DD8"/>
<defs>
<linearGradient id="paint0_linear_4_7847" x1="35.9974" y1="42.9458" x2="36.2846" y2="3.55435" gradientUnits="userSpaceOnUse">
<stop offset="0.13" stop-color="#245DD8"/>
<stop offset="0.39" stop-color="#2560DA"/>
<stop offset="0.63" stop-color="#2B6BE1"/>
<stop offset="0.86" stop-color="#337EEC"/>
<stop offset="1" stop-color="#3B8DF6"/>
</linearGradient>
<linearGradient id="paint1_linear_4_7847" x1="5.65465" y1="10.2425" x2="34.935" y2="28.5724" gradientUnits="userSpaceOnUse">
<stop stop-color="#6AE6FE"/>
<stop offset="0.23" stop-color="#68E2FD"/>
<stop offset="0.43" stop-color="#62D7FC"/>
<stop offset="0.63" stop-color="#58C4FB"/>
<stop offset="0.83" stop-color="#4AAAF8"/>
<stop offset="1" stop-color="#3B8DF6"/>
</linearGradient>
<linearGradient id="paint2_linear_4_7847" x1="0.262945" y1="18.4841" x2="28.172" y2="18.6948" gradientUnits="userSpaceOnUse">
<stop stop-color="#6AE6FE"/>
<stop offset="0.17" stop-color="#68E2FD"/>
<stop offset="0.33" stop-color="#62D7FC"/>
<stop offset="0.48" stop-color="#58C4FB"/>
<stop offset="0.63" stop-color="#4AAAF8"/>
<stop offset="0.76" stop-color="#3B8DF6"/>
</linearGradient>
</defs>
</svg>
