<svg width="664" height="501" viewBox="0 0 664 501" fill="none" xmlns="http://www.w3.org/2000/svg">
<path d="M84.8008 321.925L67.8538 325.908C76.5129 323.882 86.474 327.492 95.6912 337.233C114.253 356.852 122.928 394.036 115.012 420.128C111.031 433.259 103.589 441.103 94.8224 443.179L111.769 439.196C120.548 437.133 127.978 429.276 131.959 416.145C139.875 390.053 131.2 352.868 112.638 333.25C103.421 323.508 93.4599 319.898 84.8008 321.925Z" fill="#525265"/>
<path d="M107.671 345.498L112.319 344.414C111.058 344.709 109.872 345.493 108.852 346.835L104.204 347.918C105.25 346.577 106.422 345.806 107.671 345.498Z" fill="#3A3A46"/>
<path d="M108.866 346.822L104.218 347.905C105.238 346.563 106.423 345.779 107.685 345.485L112.333 344.401C111.071 344.696 109.886 345.48 108.866 346.822Z" fill="#3A3A46"/>
<path d="M94.2584 366.127L89.6102 367.21L104.232 347.918L108.868 346.821L94.2584 366.127Z" fill="#3A3A46"/>
<path d="M115.586 436.547L110.937 437.657C110.579 437.739 110.221 437.795 109.839 437.798C105.829 437.924 101.583 433.629 99.3977 427.218L104.046 426.135C106.219 432.533 110.464 436.827 114.487 436.714C114.87 436.685 115.228 436.629 115.586 436.547Z" fill="#3A3A46"/>
<path d="M115.586 436.547L110.937 437.657C110.579 437.739 110.221 437.795 109.839 437.797C105.829 437.924 101.583 433.629 99.3977 427.218L104.046 426.135C106.219 432.532 110.464 436.827 114.487 436.714C114.87 436.685 115.228 436.629 115.586 436.547Z" fill="#3A3A46"/>
<path d="M104.057 426.122L99.3955 427.219L88.2776 394.552L92.913 393.455L104.057 426.122Z" fill="#3A3A46"/>
<path d="M66.5191 322.882L71.1673 321.798C68.7238 322.363 66.9626 324.607 66.0305 327.677L61.3823 328.76C62.3145 325.69 64.0757 323.446 66.5191 322.882Z" fill="#3A3A46"/>
<path d="M66.0305 327.677L61.3823 328.76C62.3145 325.69 64.0757 323.446 66.5191 322.881L71.1673 321.798C68.7238 322.363 66.9762 324.594 66.0305 327.677Z" fill="#3A3A46"/>
<path d="M84.6881 375.256L80.0391 376.366L63.654 346.359L68.3022 345.276L84.6881 375.256Z" fill="#3A3A46"/>
<path d="M68.3057 345.276L63.6575 346.359C60.4904 340.54 59.9168 333.607 61.3823 328.76L66.0304 327.676C64.5649 332.524 65.1386 339.457 68.3057 345.276Z" fill="#3A3A46"/>
<path d="M68.3057 345.276L63.6575 346.359C60.4904 340.54 59.9168 333.607 61.3823 328.76L66.0304 327.676C64.5649 332.524 65.1386 339.457 68.3057 345.276Z" fill="#3A3A46"/>
<path d="M66.0261 386.109L61.3779 387.192L80.0412 376.365L84.6902 375.255L66.0261 386.109Z" fill="#3A3A46"/>
<path d="M74.4412 415.711L69.793 416.794C64.839 417.961 58.753 411.547 57.2263 401.966C56.6698 398.485 56.858 395.197 57.6581 392.531C58.3986 390.075 59.6736 388.186 61.3801 387.193L66.0283 386.109C64.3353 387.09 63.0467 388.991 62.3063 391.448C61.4934 394.1 61.3052 397.388 61.8744 400.883C63.4012 410.464 69.4871 416.878 74.4412 415.711Z" fill="#3A3A46"/>
<path d="M74.4412 415.711L69.793 416.794C64.839 417.961 58.753 411.547 57.2263 401.966C56.6698 398.485 56.858 395.197 57.6581 392.531C58.3986 390.075 59.6736 388.186 61.3801 387.193L66.0283 386.109C64.3353 387.09 63.0467 388.991 62.3063 391.448C61.4934 394.1 61.3052 397.388 61.8744 400.883C63.4012 410.464 69.4871 416.878 74.4412 415.711Z" fill="#3A3A46"/>
<path d="M66.0286 327.677C67.0946 324.149 69.2433 321.745 72.2511 321.644C76.2613 321.518 80.5069 325.812 82.6797 332.21L94.2305 366.127L108.852 346.835C113.883 340.189 122.979 347.24 124.873 359.256C125.429 362.736 125.241 366.025 124.441 368.69C123.7 371.147 122.425 373.035 120.719 374.029L102.808 384.429L118.447 413.071C121.628 418.877 122.201 425.836 120.723 430.67C119.644 434.184 117.508 436.602 114.487 436.69C110.477 436.816 106.232 432.522 104.046 426.11L92.9146 393.456L77.9056 413.291C72.8751 419.937 63.7794 412.886 61.8855 400.871C61.329 397.39 61.5172 394.101 62.3173 391.436C63.0578 388.979 64.3328 387.091 66.0393 386.097L84.7034 375.244L68.3311 345.251C65.1368 339.458 64.5631 332.525 66.0286 327.677Z" fill="#272727"/>
<path d="M83.4892 316.17L66.5423 320.154C56.9002 322.416 48.7335 331.044 44.3676 345.455C35.681 374.108 45.197 414.939 65.5788 436.492C75.6997 447.195 86.6373 451.161 96.1468 448.921L113.094 444.937C103.584 447.177 92.6467 443.211 82.5258 432.509C62.1176 410.955 52.6153 370.111 61.3146 341.471C63.5043 334.259 66.6338 328.509 70.4254 324.253C74.216 320.024 78.655 317.301 83.4892 316.17Z" fill="#525265"/>
<path d="M61.3143 341.472C70.0009 312.819 93.6752 307.045 114.057 328.598C134.439 350.152 143.968 390.996 135.268 419.636C126.582 448.289 102.907 454.062 82.5255 432.509C62.1174 410.955 52.615 370.111 61.3143 341.472ZM131.958 416.145C139.874 390.053 131.199 352.868 112.638 333.249C94.0759 313.631 72.5273 318.883 64.611 344.975C56.7083 371.055 65.3697 408.252 83.9314 427.871C102.493 447.489 124.055 442.224 131.958 416.145Z" fill="#26262E"/>
<path d="M89.0943 371.239C87.2301 377.38 89.2596 386.106 93.6391 390.733C98.0059 395.347 103.067 394.13 104.932 387.963C106.796 381.822 104.767 373.097 100.387 368.469C96.0069 363.868 90.9586 365.099 89.0943 371.239Z" fill="#26262E"/>
<path d="M91.5629 366.34C89.5043 366.823 87.7562 368.672 86.8231 371.769C84.9589 377.91 86.9884 386.635 91.3679 391.263C93.5454 393.55 95.889 394.405 97.9076 393.934L100.192 393.391C98.1599 393.875 95.8164 393.02 93.6525 390.72C89.273 386.093 87.2435 377.367 89.1077 371.226C90.0407 368.129 91.7889 366.281 93.8474 365.797L91.5629 366.34Z" fill="#525265"/>
<path d="M95.148 369.089C93.6341 369.442 92.3638 370.79 91.6694 373.051C90.3078 377.545 91.796 383.924 94.9908 387.319C96.5819 389.01 98.2878 389.624 99.7754 389.27L164.273 374.008C162.785 374.362 161.067 373.735 159.488 372.058C156.28 368.675 154.792 362.296 156.167 357.789C156.861 355.529 158.131 354.18 159.645 353.827L95.148 369.089Z" fill="#3A3A46"/>
<path d="M114.336 332.081C109.698 336.445 103.924 342.056 101.125 351.346C95.5177 369.808 101.631 396.038 114.782 409.934C121.3 416.834 128.655 418.355 134.703 419.985C147.136 423.334 195.198 415.706 195.198 415.706C195.198 415.706 188.463 413.372 179.144 403.522C160.366 383.673 151.401 348.088 159.392 321.722C163.417 308.447 168.685 302.98 168.685 302.98C168.685 302.98 121.219 325.605 114.336 332.081Z" fill="#2E2E37"/>
<path d="M158.342 320.797C166.347 294.417 188.055 289.116 206.834 308.965C225.612 328.813 234.343 366.276 226.338 392.656C218.333 419.035 196.625 424.336 177.847 404.487C159.069 384.639 150.337 347.176 158.342 320.797Z" fill="#2E2E37"/>
<path d="M205.052 476.574C203.583 477.956 201.266 477.892 199.891 476.431L113.007 384.088C111.632 382.627 111.709 380.31 113.178 378.928C114.647 377.546 116.964 377.61 118.339 379.071L205.224 471.414C206.598 472.875 206.521 475.192 205.052 476.574Z" fill="#9D9DAF"/>
<path d="M115.682 390.038C114.771 390.895 113.454 391.267 112.161 390.902C110.216 390.361 109.097 388.327 109.662 386.393L136.337 293.81L212.606 275.66C214.572 275.187 216.535 276.401 216.997 278.364C217.459 280.327 216.234 282.295 214.268 282.768L142.196 299.928L116.699 388.393C116.519 389.047 116.145 389.603 115.682 390.038Z" fill="#B8B8C3"/>
<path d="M200.982 495.526C200.071 496.383 198.754 496.755 197.462 496.39C195.516 495.849 194.398 493.815 194.963 491.881L221.042 401.363C221.594 399.416 223.635 398.286 225.567 398.841C227.512 399.382 228.631 401.416 228.066 403.35L201.986 493.867C201.806 494.521 201.445 495.091 200.982 495.526Z" fill="#9D9DAF"/>
<path d="M251.214 236.992C247.07 237.958 243.561 241.668 241.68 247.901C237.936 260.248 242.032 277.792 250.815 287.101C255.182 291.714 259.895 293.426 263.986 292.459L271.636 290.668C267.545 291.635 262.832 289.924 258.465 285.31C249.668 276.015 245.572 258.47 249.33 246.11C251.209 239.904 254.733 236.181 258.864 235.201L251.214 236.992Z" fill="#D1D1DA"/>
<path d="M271.624 290.655L263.975 292.445C259.884 293.412 255.17 291.701 250.804 287.087C250.384 286.64 249.99 286.195 249.584 285.709L257.234 283.918C257.627 284.391 258.033 284.85 258.441 285.283C262.834 289.897 267.534 291.622 271.624 290.655Z" fill="#B8B8C3"/>
<path d="M250.988 272.809L243.338 274.6C241.523 269.728 240.461 264.402 240.316 259.259L247.966 257.468C248.098 262.597 249.16 267.923 250.988 272.809Z" fill="#EDECF8"/>
<path d="M249.33 246.111C253.073 233.764 263.25 231.279 272.047 240.574C280.832 249.856 284.927 267.4 281.17 279.76C277.426 292.107 267.249 294.592 258.465 285.31C249.669 275.989 245.586 258.458 249.33 246.111Z" fill="#616167"/>
<path d="M251.211 236.992C247.453 237.876 244.212 241.027 242.233 246.256L249.882 244.465C251.861 239.237 255.102 236.085 258.861 235.201L251.211 236.992Z" fill="#B8B8C3"/>
<path d="M258.861 235.202C254.717 236.167 251.207 239.904 249.327 246.11C245.583 258.458 249.666 275.989 258.449 285.297C262.816 289.911 267.53 291.622 271.621 290.655L536.532 228.324C532.441 229.291 527.727 227.58 523.36 222.966C514.563 213.67 510.48 196.139 514.238 183.779C516.131 177.56 519.641 173.85 523.772 172.871L258.861 235.202Z" fill="#CF215C"/>
<path d="M536.53 228.324L404.076 262.402L271.619 291.332C267.528 292.299 262.815 289.911 258.448 285.297C258.041 284.864 257.634 284.405 257.241 283.933L522.152 221.602C522.545 222.074 522.952 222.533 523.359 222.966C527.739 227.567 532.44 229.265 536.53 228.324Z" fill="#BB1850"/>
<path d="M515.881 210.466L250.983 272.811C249.168 267.938 248.106 262.612 247.947 257.482L512.858 195.151C513.005 200.268 514.066 205.594 515.881 210.466Z" fill="#DC2F6A"/>
<path d="M258.86 235.202C255.101 236.086 251.86 239.238 249.881 244.466L514.792 182.135C516.771 176.907 520.012 173.755 523.771 172.871L258.86 235.202Z" fill="#BB1850"/>
<path d="M522.296 173.212C518.152 174.177 514.642 177.888 512.762 184.12C509.018 196.467 513.114 214.012 521.897 223.32C526.264 227.934 530.978 229.646 535.068 228.679L542.718 226.888C538.627 227.855 533.914 226.143 529.547 221.529C520.75 212.234 516.654 194.69 520.412 182.33C522.291 176.123 525.815 172.4 529.946 171.421L522.296 173.212Z" fill="#D1D1DA"/>
<path d="M542.694 226.86L535.044 228.65C530.953 229.617 526.24 227.906 521.873 223.292C521.453 222.845 521.059 222.4 520.666 221.928L528.316 220.137C528.709 220.609 529.115 221.068 529.523 221.501C533.916 226.116 538.617 227.814 542.694 226.86Z" fill="#B8B8C3"/>
<path d="M522.069 209.002L514.419 210.793C512.604 205.921 511.542 200.595 511.397 195.452L519.047 193.662C519.166 198.803 520.228 204.129 522.069 209.002Z" fill="#EDECF8"/>
<path d="M522.298 173.213C518.539 174.097 515.298 177.248 513.319 182.477L520.969 180.686C522.948 175.458 526.189 172.306 529.947 171.422L522.298 173.213Z" fill="#B8B8C3"/>
<path d="M544.526 176.674C549.287 181.733 551.818 188.049 552.184 194.488C552.651 202.644 549.609 210.939 543.188 216.98C539.815 220.154 535.894 222.338 531.755 223.58C531.011 222.98 530.243 222.273 529.518 221.502C520.707 212.22 516.638 194.676 520.382 182.329C522.098 176.685 525.129 173.093 528.785 171.745C528.958 171.684 529.158 171.623 529.357 171.563C529.397 171.551 529.437 171.539 529.49 171.54C531.54 170.912 533.635 170.522 535.735 170.383C538.968 171.829 541.955 173.941 544.526 176.674Z" fill="#D84174"/>
<path d="M558.452 179.208C569.207 190.64 568.595 208.686 557.101 219.501C553.088 223.277 548.277 225.686 543.262 226.707C542.466 226.869 541.671 227.005 540.864 227.101C540.85 227.114 540.838 227.1 540.838 227.1C537.922 227.217 534.798 226.05 531.744 223.568C530.999 222.967 530.232 222.261 529.507 221.49C520.696 212.207 516.627 194.664 520.37 182.317C522.086 176.672 525.118 173.08 528.773 171.732C528.947 171.671 529.146 171.611 529.346 171.551C529.386 171.538 529.426 171.526 529.479 171.528C531.529 170.9 533.624 170.51 535.724 170.37C543.98 169.769 552.38 172.755 558.452 179.208Z" fill="#272727"/>
<path d="M543.106 176.766C547.345 181.244 550.479 187.655 552.203 194.475C554.017 201.772 554.18 209.55 552.241 215.965C550.436 221.897 547.165 225.561 543.279 226.719C542.506 226.961 541.699 227.083 540.881 227.113C540.867 227.126 540.854 227.113 540.854 227.113C537.938 227.229 534.814 226.062 531.76 223.58C531.016 222.98 530.249 222.273 529.523 221.502C520.712 212.22 516.643 194.676 520.387 182.329C522.103 176.684 525.135 173.092 528.79 171.744C528.963 171.683 529.163 171.623 529.363 171.563C529.403 171.551 529.443 171.539 529.495 171.54C533.687 170.299 538.586 171.99 543.106 176.766Z" fill="#3A3A46"/>
<path d="M537.201 196.629C538.08 201.924 534.882 207.738 530.919 208.432C526.943 209.112 528.458 203.581 527.579 198.286C526.701 192.992 523.758 189.946 527.734 189.265C531.697 188.571 536.323 191.335 537.201 196.629Z" fill="#525265"/>
<path d="M245.996 207.848C249.222 197.213 257.99 195.084 265.551 203.094C273.126 211.09 276.644 226.194 273.418 236.83C270.192 247.465 261.437 249.607 253.862 241.611C246.3 233.601 242.77 218.484 245.996 207.848Z" fill="#1E1D21"/>
<path d="M235.367 202.904C231.795 203.74 228.776 206.937 227.149 212.294C223.923 222.929 227.453 238.047 235.015 246.057C238.783 250.035 242.833 251.504 246.353 250.666L265.186 246.234C261.666 247.072 257.604 245.589 253.848 241.625C246.273 233.628 242.756 218.497 245.982 207.862C247.609 202.505 250.628 199.308 254.2 198.472L235.367 202.904Z" fill="#525265"/>
<path d="M382.993 175.637C386.233 164.963 395.001 162.834 402.602 170.858C410.203 178.881 413.732 194.026 410.492 204.7C407.252 215.375 398.484 217.503 390.883 209.48C383.27 201.443 379.74 186.298 382.993 175.637Z" fill="#747479"/>
<path d="M249.288 199.627C245.716 200.463 242.684 203.673 241.043 209.043C237.802 219.718 241.332 234.862 248.933 242.885C252.701 246.863 256.763 248.346 260.296 247.522L402.222 214.115C398.689 214.94 394.627 213.457 390.858 209.479C383.258 201.455 379.728 186.311 382.968 175.637C384.596 170.28 387.628 167.07 391.214 166.221L249.288 199.627Z" fill="#DDDDE5"/>
<path d="M403.986 154.914L385.086 159.357C390.067 158.191 395.783 160.26 401.079 165.861C411.735 177.132 416.718 198.482 412.175 213.468C409.883 221.007 405.621 225.527 400.574 226.705L419.474 222.261C424.508 221.07 428.782 216.564 431.075 209.025C435.618 194.039 430.634 172.688 419.978 161.418C414.682 155.816 408.966 153.747 403.986 154.914Z" fill="#525265"/>
<path d="M411.832 169.771L414.648 169.111C413.891 169.288 413.163 169.768 412.557 170.568L409.741 171.228C410.348 170.428 411.062 169.96 411.832 169.771Z" fill="#3A3A46"/>
<path d="M412.541 170.581L409.726 171.241C410.346 170.428 411.06 169.96 411.817 169.783L414.632 169.124C413.875 169.3 413.161 169.768 412.541 170.581Z" fill="#3A3A46"/>
<path d="M403.694 182.273L400.878 182.933L409.727 171.241L412.542 170.581L403.694 182.273Z" fill="#3A3A46"/>
<path d="M416.616 224.923L413.801 225.582C413.588 225.629 413.363 225.662 413.139 225.669C410.699 225.747 408.137 223.133 406.815 219.275L409.631 218.616C410.951 222.499 413.527 225.1 415.955 225.01C416.179 225.003 416.404 224.969 416.616 224.923Z" fill="#3A3A46"/>
<path d="M416.616 224.923L413.801 225.582C413.588 225.629 413.363 225.662 413.139 225.669C410.699 225.747 408.137 223.133 406.815 219.275L409.631 218.616C410.951 222.499 413.527 225.1 415.955 225.01C416.179 225.003 416.404 224.969 416.616 224.923Z" fill="#3A3A46"/>
<path d="M409.63 218.617L406.814 219.277L400.066 199.485L402.881 198.825L409.63 218.617Z" fill="#3A3A46"/>
<path d="M386.894 156.075L389.709 155.415C388.222 155.769 387.162 157.123 386.6 158.979L383.784 159.638C384.347 157.757 385.42 156.416 386.894 156.075Z" fill="#3A3A46"/>
<path d="M386.599 158.979L383.783 159.639C384.346 157.783 385.419 156.416 386.893 156.075L389.709 155.415C388.235 155.757 387.162 157.097 386.599 158.979Z" fill="#3A3A46"/>
<path d="M397.897 187.803L395.082 188.463L385.169 170.296L387.985 169.637L397.897 187.803Z" fill="#3A3A46"/>
<path d="M387.983 169.636L385.168 170.296C383.242 166.777 382.894 162.565 383.796 159.625L386.611 158.965C385.71 161.905 386.058 166.118 387.983 169.636Z" fill="#3A3A46"/>
<path d="M387.983 169.636L385.168 170.296C383.242 166.777 382.894 162.565 383.796 159.625L386.611 158.965C385.71 161.905 386.058 166.118 387.983 169.636Z" fill="#3A3A46"/>
<path d="M386.595 194.38L383.779 195.04L395.08 188.462L397.896 187.803L386.595 194.38Z" fill="#3A3A46"/>
<path d="M391.693 212.309L388.878 212.969C385.876 213.676 382.184 209.779 381.269 203.983C380.931 201.879 381.05 199.88 381.538 198.272C381.983 196.783 382.759 195.645 383.794 195.028L386.609 194.368C385.575 194.959 384.812 196.11 384.354 197.613C383.865 199.22 383.746 201.219 384.085 203.323C384.999 209.12 388.692 213.016 391.693 212.309Z" fill="#3A3A46"/>
<path d="M391.693 212.309L388.878 212.969C385.876 213.676 382.184 209.779 381.269 203.983C380.931 201.879 381.05 199.88 381.538 198.273C381.983 196.783 382.759 195.645 383.794 195.028L386.609 194.368C385.575 194.959 384.812 196.11 384.354 197.613C383.865 199.22 383.746 201.219 384.085 203.323C384.999 209.12 388.692 213.016 391.693 212.309Z" fill="#3A3A46"/>
<path d="M386.598 158.98C387.235 156.85 388.549 155.384 390.369 155.329C392.81 155.252 395.359 157.852 396.693 161.723L403.693 182.273L412.541 170.581C415.587 166.568 421.085 170.831 422.254 178.097C422.593 180.201 422.474 182.201 421.986 183.808C421.541 185.298 420.765 186.435 419.73 187.052L408.86 193.352L418.338 210.703C420.264 214.222 420.612 218.434 419.71 221.374C419.073 223.504 417.759 224.969 415.939 225.024C413.499 225.102 410.937 222.488 409.615 218.63L402.879 198.852L393.77 210.866C390.724 214.879 385.226 210.616 384.057 203.35C383.719 201.246 383.838 199.246 384.326 197.639C384.771 196.15 385.546 195.012 386.582 194.395L397.895 187.831L387.982 169.664C386.058 166.119 385.71 161.906 386.598 158.98Z" fill="#272727"/>
<path d="M390.399 166.039C395.415 149.511 409.073 146.174 420.836 158.622C432.599 171.043 438.089 194.621 433.073 211.149C428.057 227.677 414.413 231.001 402.65 218.58C390.874 206.119 385.383 182.567 390.399 166.039ZM431.075 209.025C435.618 194.038 430.634 172.688 419.979 161.417C409.323 150.147 396.928 153.163 392.385 168.15C387.842 183.136 392.826 204.487 403.494 215.771C414.163 227.028 426.532 224.011 431.075 209.025Z" fill="#26262E"/>
<path d="M384.307 155.883C378.743 157.191 374.044 162.173 371.528 170.483C366.512 187.011 372.003 210.563 383.779 222.997C389.622 229.18 395.925 231.463 401.423 230.166L420.322 225.723C414.837 227.007 408.535 224.724 402.678 218.554C390.902 206.119 385.411 182.568 390.427 166.04C392.957 157.717 397.668 152.749 403.207 151.44L384.307 155.883Z" fill="#525265"/>
<path d="M400.23 185.942C401.251 182.584 404.014 181.923 406.408 184.44C408.802 186.957 409.908 191.731 408.887 195.089C407.867 198.446 405.116 199.121 402.723 196.604C400.33 194.061 399.21 189.3 400.23 185.942Z" fill="#1E1D21"/>
<path d="M400.481 183.539C399.352 183.811 398.396 184.812 397.891 186.511C396.871 189.869 397.991 194.63 400.371 197.159C401.555 198.417 402.831 198.874 403.947 198.615L406.271 198.061C405.156 198.32 403.879 197.863 402.696 196.604C400.302 194.088 399.195 189.314 400.216 185.956C400.733 184.271 401.676 183.256 402.805 182.984L400.481 183.539Z" fill="#525265"/>
<path d="M341.816 196.117C340.891 196.987 339.548 197.358 338.256 196.967C336.325 196.386 335.233 194.353 335.824 192.42C339.256 181.131 338.158 171.733 332.736 165.97C327.314 160.207 318 158.539 306.51 161.264L221.634 181.469C196.331 187.5 169.602 212.649 162.042 237.539L158.194 250.239C157.602 252.173 155.563 253.276 153.632 252.695C151.701 252.114 150.609 250.082 151.2 248.148L155.048 235.448C163.275 208.324 192.412 180.909 219.986 174.348L304.863 154.143C319.008 150.78 330.788 153.189 338.082 160.94C345.362 168.678 347.048 180.609 342.844 194.511C342.625 195.151 342.278 195.682 341.816 196.117Z" fill="#B8B8C3"/>
<path d="M405.012 393.615L382.262 398.953L391.57 368.262L414.334 362.911L405.012 393.615Z" fill="#424251"/>
<path d="M401.631 436.302L378.867 441.653L382.262 398.953L405.012 393.615L401.631 436.302Z" fill="#464656"/>
<path d="M404.063 438.886L381.326 444.237L378.868 441.653L401.632 436.302L404.063 438.886Z" fill="#31313C"/>
<path d="M414.335 362.911L424.023 373.153L404.064 438.886L401.633 436.302L405.014 393.615L414.335 362.911Z" fill="#25252E"/>
<path d="M251.234 429.144L228.47 434.494L237.791 403.79L260.555 398.44L251.234 429.144Z" fill="#424251"/>
<path d="M247.84 471.844L225.09 477.182L228.47 434.495L251.234 429.144L247.84 471.844Z" fill="#464656"/>
<path d="M250.284 474.416L227.532 479.78L225.088 477.182L247.839 471.844L250.284 474.416Z" fill="#31313C"/>
<path d="M260.555 398.44L270.244 408.682L250.284 474.415L247.84 471.844L251.234 429.144L260.555 398.44Z" fill="#25252E"/>
<path d="M213.747 433.732L177.89 420.261C174.493 418.994 171.079 416.647 167.781 413.169L198.101 422.745C203.181 428.116 208.502 431.755 213.747 433.732Z" fill="#C83165"/>
<path d="M160.141 259.91L137.169 281.856C138.591 277.126 140.692 273.389 143.233 270.667L169.532 242.581C165.598 246.767 162.374 252.58 160.141 259.91Z" fill="#FF4081"/>
<path d="M198.088 422.731L167.768 413.155L137.888 381.589L168.208 391.164L198.088 422.731Z" fill="#BB1850"/>
<path d="M147.401 301.889L124.43 323.809L137.168 281.856L160.141 259.91L147.401 301.889Z" fill="#CF215C"/>
<path d="M168.21 391.164L137.89 381.589C125.043 368.044 118.915 341.853 124.416 323.823L147.389 301.877C138.894 329.916 148.274 370.084 168.21 391.164Z" fill="#CF215C"/>
<path d="M437.08 386.242L228.062 434.878C218.739 437.07 207.996 433.202 198.091 422.73L407.109 374.094C417.014 384.566 427.757 388.435 437.08 386.242Z" fill="#A80F43"/>
<path d="M369.158 211.275L160.14 259.911C164.416 245.813 172.431 237.379 181.901 235.151L390.919 186.515C381.449 188.743 373.434 197.177 369.158 211.275Z" fill="#BF1A53"/>
<path d="M483.217 330.564L449.463 378.773C438.383 390.627 421.837 389.667 407.095 374.081L454.985 343.049C471.012 340.977 483.217 330.564 483.217 330.564Z" fill="#BB1850"/>
<path d="M430.336 221.837L369.16 211.274C375.494 190.395 390.033 181.918 405.286 187.69L460.934 219.088C451.055 215.375 430.336 221.837 430.336 221.837Z" fill="#BB1850"/>
<path d="M407.109 374.095L198.091 422.731L168.211 391.164L377.229 342.528L407.109 374.095Z" fill="#BB1850"/>
<path d="M356.433 253.242L147.401 301.89L160.141 259.91L369.159 211.275L356.433 253.242Z" fill="#FF4081"/>
<path d="M455.955 342.826L407.108 374.095L377.228 342.529L423.88 312.662L455.955 342.826Z" fill="#CF215C"/>
<path d="M422.843 272.554L340.467 272.447L360.399 209.878L447.934 219.212L422.843 272.554Z" fill="#CF215C"/>
<path d="M377.23 342.528L168.212 391.164C160.013 382.505 153.608 370.627 149.492 357.667L358.509 309.031C362.626 321.965 369.044 333.856 377.23 342.528Z" fill="#CF215C"/>
<path d="M358.508 309.031L149.49 357.667C145.254 344.361 143.453 329.937 144.602 316.767L353.62 268.131C352.471 281.301 354.272 295.725 358.508 309.031Z" fill="#CF215C"/>
<path d="M353.622 268.131L144.604 316.767C145.067 311.562 145.984 306.568 147.404 301.89L356.422 253.254C355.015 257.919 354.085 262.926 353.622 268.131Z" fill="#FF4081"/>
<path d="M429.049 309.734L377.226 342.528C357.29 321.448 344.702 301.398 353.21 273.372L412.979 259.538C407.491 277.555 429.049 309.734 429.049 309.734Z" fill="#DC2F6A"/>
<path d="M488.258 318.86C479.247 348.532 454.568 354.409 433.401 331.912C412.233 309.414 402.278 266.727 411.288 237.055C420.299 207.383 444.978 201.506 466.145 224.003C487.313 246.5 497.268 289.188 488.258 318.86Z" fill="#A02520"/>
<path d="M433.876 211.236L447.622 207.994C437.688 210.327 429.261 219.251 424.734 234.145L410.975 237.374C415.514 222.493 423.941 213.57 433.876 211.236Z" fill="#DDDDE5"/>
<path d="M424.747 234.159L410.987 237.388C411.401 236.029 411.854 234.711 412.331 233.446L426.09 230.217C425.599 231.495 425.161 232.801 424.747 234.159Z" fill="#DDDDE5"/>
<path d="M426.078 230.231L412.319 233.459C417.057 220.916 424.832 213.371 433.864 211.25L447.61 208.007C438.605 210.129 430.817 217.687 426.078 230.231Z" fill="#D1D1DA"/>
<path d="M478.22 341.033L464.474 344.275C454.672 346.586 443.37 342.478 432.906 331.411C411.81 309.126 402.007 267.036 410.989 237.416L424.748 234.187C415.766 263.807 425.569 305.898 446.665 328.182C457.143 339.237 468.419 343.344 478.22 341.033Z" fill="#DDDDE5"/>
<path d="M478.223 341.033L464.477 344.275C454.675 346.586 443.373 342.478 432.909 331.411C431.916 330.355 430.938 329.261 430 328.128L443.759 324.9C444.697 326.032 445.675 327.127 446.668 328.182C457.146 339.236 468.422 343.343 478.223 341.033Z" fill="#B8B8C3"/>
<path d="M443.747 324.887L429.988 328.116C423.791 320.658 418.721 311.453 414.981 301.454L428.727 298.212C432.48 308.224 437.551 317.429 443.747 324.887Z" fill="#D1D1DA"/>
<path d="M428.74 298.226L414.993 301.468C410.625 289.766 408.071 276.994 407.716 264.652L421.463 261.409C421.817 273.751 424.371 286.523 428.74 298.226Z" fill="#DDDDE5"/>
<path d="M421.463 261.409L407.716 264.651C407.442 255.065 408.476 245.752 411.019 237.417L424.778 234.188C422.222 242.51 421.188 251.823 421.463 261.409Z" fill="#DDDDE5"/>
<path d="M424.751 234.16C433.733 204.54 458.125 198.575 479.207 220.873C500.303 243.157 510.093 285.234 501.111 314.854C492.129 344.474 467.737 350.438 446.655 328.141C425.572 305.87 415.755 263.792 424.751 234.16Z" fill="#9D9DAF"/>
<path d="M179.285 476.032C175.142 476.998 171.632 480.708 169.751 486.941C166.007 499.288 170.103 516.833 178.887 526.141C183.253 530.755 187.967 532.466 192.058 531.499L199.707 529.708C195.617 530.676 190.903 528.964 186.536 524.35C177.739 515.055 173.644 497.51 177.401 485.15C179.281 478.944 182.804 475.221 186.935 474.242L179.285 476.032Z" fill="#D1D1DA"/>
<path d="M179.058 511.824L171.408 513.614C169.594 508.742 168.532 503.416 168.386 498.273L176.036 496.483C176.169 501.612 177.231 506.938 179.058 511.824Z" fill="#EDECF8"/>
<path d="M177.401 485.123C181.145 472.776 191.322 470.291 200.119 479.587C208.903 488.868 212.999 506.413 209.242 518.773C205.498 531.12 195.321 533.605 186.537 524.323C177.74 515.028 173.644 497.483 177.401 485.123Z" fill="#616167"/>
<path d="M179.283 476.032C175.524 476.916 172.283 480.067 170.304 485.296L177.954 483.505C179.933 478.276 183.174 475.125 186.933 474.241L179.283 476.032Z" fill="#B8B8C3"/>
<path d="M186.934 474.215C182.791 475.18 179.28 478.917 177.4 485.123C173.656 497.47 177.739 515.001 186.523 524.309C190.889 528.923 195.603 530.635 199.694 529.668L464.605 467.337C460.514 468.304 455.8 466.592 451.434 461.978C442.637 452.683 438.554 435.152 442.311 422.792C444.204 416.573 447.714 412.863 451.845 411.883L186.934 474.215Z" fill="#CF215C"/>
<path d="M464.604 467.337L199.693 529.668C195.603 530.635 190.889 528.924 186.522 524.31C186.102 523.863 185.709 523.418 185.316 522.946L450.227 460.615C450.62 461.087 451.026 461.546 451.433 461.979C455.8 466.593 460.514 468.304 464.604 467.337Z" fill="#BB1850"/>
<path d="M443.966 449.492L179.055 511.823C177.241 506.951 176.179 501.625 176.02 496.495L440.93 434.164C441.077 439.28 442.139 444.606 443.966 449.492Z" fill="#DC2F6A"/>
<path d="M186.933 474.215C183.175 475.099 179.934 478.25 177.955 483.479L442.866 421.148C444.845 415.919 448.086 412.768 451.844 411.884L186.933 474.215Z" fill="#BB1850"/>
<path d="M450.373 412.224C446.23 413.189 442.707 416.912 440.84 423.132C437.096 435.479 441.191 453.024 449.975 462.332C454.342 466.946 459.055 468.657 463.146 467.69L470.796 465.9C466.705 466.867 461.991 465.155 457.625 460.541C448.828 451.246 444.732 433.701 448.489 421.342C450.369 415.135 453.893 411.412 458.023 410.433L450.373 412.224Z" fill="#D1D1DA"/>
<path d="M470.783 465.886L463.133 467.677C459.042 468.644 454.329 466.932 449.975 462.305C449.568 461.873 449.162 461.413 448.769 460.941L456.419 459.151C456.811 459.623 457.218 460.082 457.625 460.515C461.978 465.141 466.692 466.853 470.783 465.886Z" fill="#B8B8C3"/>
<path d="M450.135 448.028L442.486 449.819C440.671 444.947 439.609 439.621 439.463 434.478L447.113 432.687C447.259 437.83 448.32 443.156 450.135 448.028Z" fill="#EDECF8"/>
<path d="M450.373 412.224C446.614 413.108 443.373 416.259 441.394 421.488L449.044 419.697C451.023 414.469 454.264 411.317 458.023 410.433L450.373 412.224Z" fill="#B8B8C3"/>
<path d="M472.62 415.701C477.381 420.76 479.912 427.075 480.278 433.515C480.745 441.67 477.702 449.966 471.282 456.007C467.909 459.181 463.988 461.365 459.849 462.607C459.104 462.007 458.337 461.3 457.612 460.529C448.801 451.247 444.732 433.703 448.476 421.356C450.192 415.711 453.223 412.12 456.878 410.772C457.052 410.71 457.251 410.65 457.451 410.59C457.491 410.578 457.531 410.566 457.584 410.567C459.634 409.939 461.729 409.549 463.829 409.409C467.049 410.843 470.036 412.954 472.62 415.701Z" fill="#D84174"/>
<path d="M486.543 418.234C497.299 429.665 496.687 447.712 485.193 458.526C481.18 462.302 476.369 464.712 471.354 465.732C470.558 465.894 469.763 466.031 468.956 466.127C468.942 466.14 468.929 466.126 468.929 466.126C466.013 466.243 462.889 465.076 459.836 462.593C459.091 461.993 458.324 461.287 457.598 460.516C448.788 451.233 444.718 433.689 448.462 421.342C450.178 415.698 453.21 412.106 456.865 410.758C457.039 410.697 457.238 410.636 457.438 410.576C457.478 410.564 457.518 410.552 457.57 410.553C459.621 409.925 461.716 409.535 463.816 409.396C472.045 408.794 480.459 411.767 486.543 418.234Z" fill="#272727"/>
<path d="M471.192 415.793C475.431 420.272 478.566 426.683 480.29 433.503C482.103 440.799 482.266 448.577 480.327 454.993C478.523 460.924 475.251 464.589 471.365 465.746C470.593 465.988 469.785 466.111 468.967 466.141C468.953 466.153 468.941 466.14 468.941 466.14C466.024 466.257 462.901 465.09 459.847 462.607C459.102 462.007 458.335 461.301 457.61 460.529C448.799 451.247 444.73 433.703 448.474 421.356C450.19 415.712 453.221 412.12 456.877 410.772C457.05 410.711 457.25 410.65 457.449 410.59C457.489 410.578 457.529 410.566 457.582 410.567C461.76 409.339 466.659 411.03 471.192 415.793Z" fill="#3A3A46"/>
<path d="M465.263 435.655C466.141 440.949 462.956 446.777 458.98 447.457C455.005 448.138 456.519 442.606 455.641 437.312C454.762 432.017 451.819 428.971 455.795 428.291C459.785 427.598 464.384 430.36 465.263 435.655Z" fill="#525265"/>
<path d="M181.615 418.849C184.841 408.214 193.609 406.085 201.171 414.095C208.746 422.091 212.264 437.196 209.038 447.831C205.812 458.467 197.057 460.609 189.482 452.612C181.907 444.589 178.39 429.485 181.615 418.849Z" fill="#1E1D21"/>
<path d="M170.987 413.877C167.415 414.714 164.396 417.911 162.769 423.267C159.543 433.903 163.073 449.021 170.635 457.03C174.404 461.008 178.453 462.477 181.973 461.64L200.806 457.207C197.286 458.045 193.224 456.563 189.482 452.585C181.907 444.589 178.39 429.458 181.616 418.823C183.243 413.466 186.261 410.269 189.834 409.432L170.987 413.877Z" fill="#525265"/>
<path d="M318.599 386.625C321.839 375.95 330.607 373.821 338.208 381.845C345.809 389.869 349.338 405.013 346.098 415.687C342.857 426.362 334.09 428.491 326.489 420.467C318.902 412.431 315.372 397.286 318.599 386.625Z" fill="#747479"/>
<path d="M184.906 410.627C181.333 411.464 178.301 414.674 176.66 420.043C173.42 430.718 176.95 445.862 184.55 453.886C188.319 457.864 192.381 459.346 195.914 458.522L337.839 425.116C334.307 425.94 330.244 424.457 326.476 420.479C318.875 412.456 315.346 397.311 318.586 386.637C320.213 381.28 323.245 378.07 326.832 377.221L184.906 410.627Z" fill="#DDDDE5"/>
<path d="M339.593 365.899L320.694 370.342C325.674 369.176 331.391 371.245 336.686 376.846C347.342 388.117 352.326 409.467 347.783 424.453C345.49 431.992 341.228 436.512 336.182 437.69L355.081 433.246C360.115 432.055 364.389 427.549 366.682 420.01C371.225 405.024 366.241 383.673 355.586 372.403C350.303 366.815 344.574 364.732 339.593 365.899Z" fill="#525265"/>
<path d="M347.444 380.753L350.26 380.093C349.503 380.27 348.775 380.75 348.169 381.55L345.353 382.21C345.959 381.41 346.687 380.929 347.444 380.753Z" fill="#3A3A46"/>
<path d="M348.169 381.55L345.353 382.21C345.973 381.397 346.687 380.929 347.444 380.753L350.26 380.093C349.503 380.27 348.775 380.75 348.169 381.55Z" fill="#3A3A46"/>
<path d="M339.303 393.255L336.488 393.915L345.35 382.211L348.165 381.551L339.303 393.255Z" fill="#3A3A46"/>
<path d="M352.226 435.908L349.41 436.567C349.198 436.614 348.973 436.648 348.748 436.655C346.308 436.732 343.746 434.118 342.425 430.261L345.24 429.601C346.561 433.485 349.136 436.086 351.564 435.995C351.788 435.988 352.013 435.954 352.226 435.908Z" fill="#3A3A46"/>
<path d="M352.226 435.908L349.41 436.567C349.198 436.614 348.973 436.648 348.748 436.655C346.308 436.732 343.746 434.118 342.425 430.26L345.24 429.601C346.561 433.484 349.136 436.086 351.564 435.995C351.788 435.988 352.013 435.954 352.226 435.908Z" fill="#3A3A46"/>
<path d="M345.241 429.6L342.425 430.259L335.676 410.467L338.492 409.807L345.241 429.6Z" fill="#3A3A46"/>
<path d="M322.518 367.045L325.333 366.385C323.845 366.74 322.786 368.094 322.224 369.949L319.408 370.609C319.97 368.753 321.03 367.399 322.518 367.045Z" fill="#3A3A46"/>
<path d="M322.224 369.949L319.408 370.609C319.97 368.753 321.044 367.387 322.518 367.045L325.333 366.386C323.845 366.74 322.786 368.094 322.224 369.949Z" fill="#3A3A46"/>
<path d="M333.507 398.786L330.692 399.446L320.779 381.279L323.595 380.619L333.507 398.786Z" fill="#3A3A46"/>
<path d="M323.596 380.62L320.78 381.279C318.855 377.761 318.507 373.548 319.408 370.609L322.224 369.949C321.322 372.888 321.67 377.101 323.596 380.62Z" fill="#3A3A46"/>
<path d="M323.596 380.62L320.78 381.279C318.855 377.761 318.507 373.548 319.408 370.609L322.224 369.949C321.322 372.888 321.67 377.101 323.596 380.62Z" fill="#3A3A46"/>
<path d="M322.219 405.351L319.404 406.011L330.691 399.446L333.507 398.787L322.219 405.351Z" fill="#3A3A46"/>
<path d="M327.305 423.292L324.49 423.951C321.488 424.659 317.796 420.762 316.882 414.966C316.543 412.861 316.662 410.862 317.15 409.255C317.595 407.765 318.371 406.627 319.406 406.01L322.222 405.351C321.187 405.941 320.424 407.093 319.966 408.595C319.478 410.202 319.359 412.202 319.697 414.306C320.612 420.102 324.304 423.999 327.305 423.292Z" fill="#3A3A46"/>
<path d="M327.305 423.292L324.49 423.951C321.488 424.659 317.796 420.762 316.882 414.966C316.543 412.861 316.662 410.862 317.15 409.255C317.595 407.765 318.371 406.627 319.406 406.01L322.222 405.351C321.187 405.941 320.424 407.093 319.966 408.595C319.478 410.202 319.359 412.202 319.697 414.306C320.612 420.102 324.304 423.999 327.305 423.292Z" fill="#3A3A46"/>
<path d="M322.221 369.948C322.859 367.818 324.172 366.353 325.993 366.298C328.433 366.22 330.982 368.821 332.316 372.692L339.317 393.242L348.165 381.55C351.21 377.537 356.709 381.8 357.878 389.066C358.216 391.17 358.097 393.169 357.609 394.776C357.164 396.266 356.389 397.404 355.353 398.021L344.484 404.321L353.962 421.672C355.888 425.19 356.235 429.403 355.334 432.342C354.697 434.472 353.383 435.938 351.563 435.993C349.122 436.07 346.56 433.456 345.239 429.599L338.503 409.82L329.393 421.834C326.348 425.848 320.849 421.584 319.681 414.319C319.342 412.214 319.461 410.215 319.949 408.608C320.394 407.118 321.17 405.98 322.205 405.363L333.506 398.786L323.593 380.619C321.668 377.1 321.32 372.888 322.221 369.948Z" fill="#272727"/>
<path d="M326.007 377.023C331.023 360.495 344.681 357.158 356.444 369.606C368.207 382.027 373.697 405.605 368.681 422.133C363.665 438.661 350.021 441.985 338.258 429.564C326.495 417.117 321.004 393.565 326.007 377.023ZM366.696 420.022C371.239 405.036 366.255 383.686 355.599 372.415C344.944 361.145 332.549 364.161 328.006 379.147C323.463 394.134 328.447 415.484 339.115 426.768C349.771 438.012 362.152 435.009 366.696 420.022Z" fill="#26262E"/>
<path d="M319.914 366.869C314.349 368.178 309.651 373.159 307.135 381.469C302.119 397.997 307.61 421.549 319.386 433.984C325.229 440.167 331.531 442.449 337.03 441.153L355.929 436.709C350.444 437.993 344.142 435.71 338.285 429.54C326.509 417.106 321.018 393.554 326.034 377.026C328.564 368.703 333.275 363.735 338.814 362.426L319.914 366.869Z" fill="#525265"/>
<path d="M335.838 396.929C336.859 393.571 339.622 392.91 342.016 395.427C344.409 397.944 345.516 402.718 344.495 406.076C343.475 409.434 340.724 410.108 338.331 407.591C335.938 405.048 334.817 400.287 335.838 396.929Z" fill="#1E1D21"/>
<path d="M336.101 394.513C334.972 394.785 334.017 395.786 333.512 397.485C332.491 400.842 333.611 405.603 335.992 408.133C337.175 409.391 338.452 409.848 339.567 409.589L341.905 409.022C340.79 409.281 339.514 408.824 338.33 407.566C335.936 405.049 334.829 400.275 335.85 396.917C336.367 395.232 337.31 394.217 338.439 393.945L336.101 394.513Z" fill="#525265"/>
<path d="M350.103 193.065L145.305 241.225C146.59 237.822 148.731 235.654 151.281 235.066L356.078 186.933C353.542 187.508 351.389 189.662 350.103 193.065Z" fill="#C83165"/>
<path d="M145.305 241.225C145.175 241.577 133.132 281.218 133.132 281.218L337.93 233.084C337.93 233.084 349.973 193.443 350.103 193.091L145.305 241.225Z" fill="#FF4081"/>
<path d="M353.44 273.554L144.186 322.565L135.321 301.423L340.106 253.276L353.44 273.554Z" fill="#BB1850"/>
<path d="M340.109 253.277L135.324 301.424C134.93 300.596 134.562 299.769 134.248 298.917L339.045 250.783C339.36 251.609 339.727 252.462 340.109 253.277Z" fill="#ED3B78"/>
<path d="M339.045 250.758L134.233 298.904C132.998 295.629 132.324 292.106 132.226 288.73L337.01 240.583C337.136 243.959 337.809 247.483 339.045 250.758Z" fill="#FF4081"/>
<path d="M337.023 240.597L132.238 288.744C132.156 286.067 132.452 283.493 133.147 281.206L337.932 233.059C337.25 235.333 336.954 237.907 337.023 240.597Z" fill="#DC2F6A"/>
<path d="M349.738 194.149C351.515 188.269 355.61 185.563 360.154 187.23L378.378 194.007C378.378 194.007 369.329 211.728 363.782 228.781C356.736 250.483 353.44 273.554 353.44 273.554L340.106 253.277C337.011 246.854 336.141 238.924 337.93 233.058L349.738 194.149Z" fill="#DC2F6A"/>
<path d="M177.4 235.436C185.276 233.559 189.769 238.361 187.414 246.188C185.072 254.002 176.773 261.861 168.896 263.738C161.02 265.615 156.541 260.8 158.882 252.986C161.224 245.172 169.523 237.312 177.4 235.436Z" fill="#A02520"/>
<path d="M161.838 269.564C161.501 267.407 161.703 264.896 162.534 262.099C165.839 251.084 177.673 239.949 188.923 237.27C191.766 236.585 194.298 236.523 196.47 236.978L197.817 235.711L185.204 222.279C182.608 219.493 178.163 218.447 172.517 219.806C161.28 222.472 149.432 233.62 146.128 244.635C144.484 250.11 145.246 254.519 147.804 257.264L160.519 270.805L161.838 269.564Z" fill="#BB1850"/>
<path d="M170.424 241.671L184.082 256.186C184.426 256.552 184.525 257.147 184.316 257.879C183.871 259.369 182.293 260.854 180.779 261.207C180.022 261.384 179.434 261.249 179.077 260.87L165.419 246.354C165.763 246.72 166.364 246.868 167.121 246.691C168.635 246.338 170.227 244.841 170.658 243.364C170.867 242.632 170.768 242.036 170.424 241.671Z" fill="#19121B"/>
<path d="M170.424 241.67L184.082 256.186C184.426 256.551 184.525 257.147 184.316 257.879C184.226 258.193 184.071 258.518 183.876 258.828L170.218 244.313C170.413 244.002 170.555 243.69 170.658 243.363C170.867 242.631 170.768 242.035 170.424 241.67Z" fill="#19121B"/>
<path d="M170.219 244.313L183.876 258.829C183.193 259.956 181.961 260.936 180.766 261.219C180.447 261.29 180.17 261.321 179.907 261.288L166.25 246.772C166.499 246.792 166.79 246.774 167.108 246.704C168.291 246.407 169.523 245.427 170.219 244.313Z" fill="#19121B"/>
<path d="M166.25 246.746L179.907 261.262C179.553 261.213 179.254 261.086 179.051 260.869L165.393 246.354C165.609 246.583 165.895 246.723 166.25 246.746Z" fill="#19121B"/>
<path d="M168.722 241.335C170.236 240.981 171.102 241.875 170.657 243.365C170.212 244.854 168.634 246.339 167.12 246.692C165.607 247.046 164.74 246.152 165.185 244.662C165.616 243.186 167.208 241.688 168.722 241.335Z" fill="#272727"/>
<path d="M167.705 243.691L168.507 244.544L148.197 249.396L147.396 248.544L167.705 243.691Z" fill="#272727"/>
<path d="M159.746 240.138C161.38 239.749 162.796 239.946 163.734 240.67L167.706 243.692L147.396 248.544L146.726 245.706C146.458 244.632 147.791 242.995 149.186 242.652L159.746 240.138Z" fill="#3A3A46"/>
<path d="M179.546 221.226L180.348 222.079C180.577 222.322 180.656 222.733 180.494 223.242L179.692 222.39C179.868 221.868 179.775 221.47 179.546 221.226Z" fill="#272727"/>
<path d="M179.546 221.226L180.348 222.079C180.577 222.322 180.656 222.733 180.494 223.242L179.692 222.39C179.868 221.868 179.775 221.47 179.546 221.226Z" fill="#272727"/>
<path d="M179.709 222.377L180.498 223.242L177.388 233.565L176.599 232.726L179.709 222.377Z" fill="#272727"/>
<path d="M176.598 232.725L177.399 233.577C176.911 235.184 175.88 236.868 174.46 238.357L173.658 237.505C175.078 236.016 176.109 234.332 176.598 232.725Z" fill="#272727"/>
<path d="M176.598 232.725L177.399 233.577C176.911 235.184 175.88 236.868 174.46 238.357L173.658 237.505C175.078 236.016 176.109 234.332 176.598 232.725Z" fill="#272727"/>
<path d="M178.383 220.996C179.366 220.76 180.02 221.318 179.695 222.39L176.597 232.726C176.109 234.333 175.078 236.017 173.658 237.506L167.774 243.654L167.734 243.666L173.705 223.792L177.488 221.38C177.811 221.178 178.105 221.054 178.383 220.996Z" fill="#3A3A46"/>
<path d="M173.671 237.492L174.459 238.358L168.589 244.493L167.787 243.64L173.671 237.492Z" fill="#272727"/>
<path d="M167.788 243.641L168.59 244.494L168.55 244.506L167.749 243.653L167.788 243.641Z" fill="#272727"/>
<path d="M167.749 243.652L168.551 244.504L168.523 244.556L167.733 243.717L167.749 243.652Z" fill="#272727"/>
<path d="M167.708 243.69L167.747 243.654L167.732 243.716L167.708 243.69Z" fill="#272727"/>
<path d="M171.732 246.688L172.534 247.541L168.563 244.519L167.761 243.667L171.732 246.688Z" fill="#272727"/>
<path d="M175.748 247.221L176.55 248.074C174.903 248.476 173.486 248.278 172.548 247.554L171.746 246.702C172.684 247.426 174.088 247.61 175.748 247.221Z" fill="#272727"/>
<path d="M175.748 247.221L176.55 248.074C174.903 248.476 173.486 248.278 172.548 247.554L171.746 246.702C172.684 247.426 174.088 247.61 175.748 247.221Z" fill="#272727"/>
<path d="M156.721 266.984L155.919 266.132C156.161 266.389 156.579 266.48 157.084 266.362C157.363 266.304 157.657 266.18 157.967 265.965L158.769 266.817C158.46 267.006 158.152 267.143 157.886 267.214C157.381 267.332 156.963 267.242 156.721 266.984Z" fill="#272727"/>
<path d="M157.98 265.978L158.782 266.83C158.472 267.019 158.165 267.156 157.899 267.228C157.394 267.345 156.975 267.255 156.734 266.998L155.932 266.145C156.173 266.402 156.592 266.493 157.097 266.375C157.363 266.304 157.657 266.18 157.98 265.978Z" fill="#272727"/>
<path d="M161.764 263.566L162.566 264.419L158.783 266.83L157.981 265.978L161.764 263.566Z" fill="#272727"/>
<path d="M167.679 243.717L168.481 244.569L162.564 264.419L161.762 263.566L167.679 243.717Z" fill="#272727"/>
<path d="M161.821 249.866L167.705 243.718L161.775 263.581L157.992 265.992C157.682 266.181 157.375 266.318 157.109 266.389C156.126 266.626 155.472 266.067 155.784 265.009L158.882 254.647C159.357 253.052 160.401 251.355 161.821 249.866Z" fill="#3A3A46"/>
<path d="M188.07 238.814L188.872 239.667L189.555 242.518L188.767 241.653L188.07 238.814Z" fill="#272727"/>
<path d="M186.28 244.707L187.082 245.559L176.536 248.06L175.747 247.221L186.28 244.707Z" fill="#272727"/>
<path d="M188.07 238.814L188.767 241.653C189.008 242.727 187.688 244.377 186.294 244.694L175.734 247.208C174.087 247.61 172.67 247.413 171.732 246.688L167.761 243.667L188.07 238.814Z" fill="#3A3A46"/>
<path d="M188.765 241.653L189.567 242.505C189.808 243.579 188.488 245.229 187.094 245.546L186.292 244.694C187.686 244.376 189.006 242.727 188.765 241.653Z" fill="#272727"/>
<path d="M188.764 241.653L189.566 242.505C189.807 243.579 188.488 245.229 187.093 245.546L186.291 244.693C187.686 244.376 189.005 242.726 188.764 241.653Z" fill="#272727"/>
<path d="M168.95 240.892L169.675 241.663C169.968 241.974 170.057 242.477 169.864 243.118C169.48 244.372 168.16 245.64 166.898 245.934C166.273 246.088 165.777 245.969 165.484 245.658L164.758 244.887C165.051 245.198 165.548 245.317 166.172 245.163C167.434 244.868 168.768 243.588 169.139 242.346C169.331 241.706 169.242 241.203 168.95 240.892Z" fill="#19121B"/>
<path d="M168.947 240.892L169.673 241.663C169.851 241.852 169.947 242.119 169.95 242.422L169.225 241.651C169.235 241.335 169.125 241.081 168.947 240.892Z" fill="#19121B"/>
<path d="M169.237 241.663L169.962 242.434C169.969 242.632 169.935 242.869 169.861 243.117C169.727 243.574 169.461 244.028 169.118 244.453L168.392 243.682C168.736 243.257 169.001 242.803 169.135 242.346C169.209 242.097 169.243 241.861 169.237 241.663Z" fill="#19121B"/>
<path d="M168.382 243.669L169.107 244.44C168.517 245.148 167.681 245.731 166.884 245.92C166.259 246.074 165.762 245.955 165.47 245.644L164.744 244.873C165.037 245.184 165.534 245.303 166.158 245.149C166.968 244.974 167.804 244.391 168.382 243.669Z" fill="#19121B"/>
<path d="M167.534 240.615C168.795 240.321 169.521 241.092 169.137 242.346C168.752 243.6 167.432 244.868 166.17 245.162C164.909 245.457 164.183 244.686 164.567 243.431C164.925 242.177 166.272 240.909 167.534 240.615Z" fill="#525265"/>
<path d="M187.244 220.384L194.943 228.622C197.78 231.665 198.632 236.576 196.81 242.626C193.137 254.83 180.024 267.168 167.565 270.143C161.295 271.629 156.366 270.478 153.49 267.395L145.791 259.157C148.667 262.241 153.596 263.392 159.866 261.906C172.311 258.944 185.438 246.593 189.111 234.389C190.933 228.339 190.081 223.428 187.244 220.384Z" fill="#BF1A53"/>
<path d="M187.243 220.384L194.942 228.622C197.78 231.665 198.631 236.576 196.81 242.626C193.136 254.83 180.024 267.168 167.564 270.143C161.295 271.629 156.365 270.478 153.489 267.395L145.79 259.157C148.666 262.241 153.596 263.392 159.865 261.906C172.311 258.944 185.437 246.593 189.111 234.389C190.932 228.339 190.081 223.428 187.243 220.384Z" fill="#ED3B78"/>
<path d="M173.169 217.637C185.615 214.674 192.785 222.185 189.111 234.389C185.438 246.594 172.338 258.945 159.866 261.906C147.406 264.881 140.25 257.357 143.924 245.153C147.597 232.949 160.71 220.611 173.169 217.637ZM160.544 259.738C171.768 257.058 183.615 245.937 186.919 234.922C190.224 223.906 183.768 217.127 172.544 219.806C161.307 222.473 149.459 233.62 146.155 244.635C142.838 255.637 149.294 262.417 160.544 259.738Z" fill="#FF4081"/>
<path d="M300.81 206.878C308.687 205.001 313.179 209.803 310.824 217.63C308.483 225.444 300.183 233.304 292.307 235.18C284.43 237.057 279.951 232.242 282.293 224.428C284.648 216.602 292.934 208.755 300.81 206.878Z" fill="#A02520"/>
<path d="M285.248 241.006C284.911 238.849 285.113 236.338 285.943 233.542C289.248 222.527 301.082 211.392 312.332 208.713C315.175 208.027 317.72 207.979 319.88 208.421L321.24 207.141L308.627 193.709C306.031 190.923 301.586 189.877 295.94 191.236C284.703 193.902 272.855 205.05 269.551 216.065C267.906 221.54 268.669 225.948 271.227 228.694L283.942 242.235L285.248 241.006Z" fill="#BB1850"/>
<path d="M293.846 213.102L307.503 227.618C307.847 227.983 307.946 228.579 307.723 229.324C307.279 230.813 305.701 232.298 304.187 232.651C303.43 232.828 302.841 232.693 302.485 232.314L288.827 217.798C289.171 218.164 289.772 218.312 290.529 218.135C292.043 217.782 293.635 216.285 294.066 214.808C294.288 214.063 294.189 213.467 293.846 213.102Z" fill="#19121B"/>
<path d="M293.845 213.102L307.502 227.618C307.846 227.983 307.945 228.578 307.723 229.323C307.633 229.637 307.477 229.962 307.282 230.273L293.625 215.757C293.82 215.446 293.962 215.134 294.065 214.808C294.287 214.063 294.188 213.467 293.845 213.102Z" fill="#19121B"/>
<path d="M293.639 215.745L307.296 230.261C306.613 231.388 305.381 232.368 304.186 232.652C303.867 232.722 303.59 232.754 303.327 232.72L289.669 218.204C289.919 218.224 290.21 218.206 290.528 218.136C291.711 217.839 292.929 216.872 293.639 215.745Z" fill="#19121B"/>
<path d="M289.671 218.203L303.328 232.719C302.974 232.67 302.675 232.543 302.472 232.327L288.814 217.811C289.031 218.014 289.316 218.154 289.671 218.203Z" fill="#19121B"/>
<path d="M292.131 212.778C293.645 212.425 294.512 213.319 294.067 214.808C293.622 216.298 292.044 217.783 290.53 218.136C289.016 218.489 288.15 217.596 288.595 216.106C289.039 214.616 290.617 213.132 292.131 212.778Z" fill="#272727"/>
<path d="M291.131 215.121L291.933 215.973L271.61 220.838L270.822 219.973L291.131 215.121Z" fill="#272727"/>
<path d="M283.158 211.58C284.792 211.19 286.208 211.388 287.146 212.112L291.118 215.134L270.808 219.986L270.138 217.148C269.871 216.074 271.217 214.424 272.598 214.094L283.158 211.58Z" fill="#3A3A46"/>
<path d="M302.972 192.656L303.774 193.508C304.003 193.752 304.082 194.163 303.92 194.672L303.118 193.82C303.28 193.31 303.201 192.9 302.972 192.656Z" fill="#272727"/>
<path d="M302.972 192.656L303.774 193.508C304.003 193.752 304.082 194.162 303.92 194.672L303.118 193.819C303.28 193.31 303.201 192.899 302.972 192.656Z" fill="#272727"/>
<path d="M303.116 193.819L303.918 194.672L300.821 205.008L300.019 204.155L303.116 193.819Z" fill="#272727"/>
<path d="M300.021 204.155L300.823 205.007C300.335 206.614 299.304 208.299 297.884 209.788L297.082 208.935C298.502 207.446 299.533 205.762 300.021 204.155Z" fill="#272727"/>
<path d="M300.021 204.155L300.823 205.007C300.335 206.614 299.304 208.299 297.884 209.788L297.082 208.935C298.502 207.446 299.533 205.762 300.021 204.155Z" fill="#272727"/>
<path d="M301.805 192.426C302.788 192.19 303.441 192.749 303.116 193.82L300.019 204.156C299.53 205.763 298.499 207.447 297.079 208.936L291.196 215.084L291.156 215.096L297.126 195.222L300.909 192.81C301.232 192.608 301.539 192.498 301.805 192.426Z" fill="#3A3A46"/>
<path d="M297.08 208.936L297.882 209.788L291.998 215.936L291.197 215.084L297.08 208.936Z" fill="#272727"/>
<path d="M291.196 215.083L291.998 215.935L291.958 215.947L291.156 215.095L291.196 215.083Z" fill="#272727"/>
<path d="M291.157 215.096L291.958 215.948L291.944 215.987L291.155 215.149L291.157 215.096Z" fill="#272727"/>
<path d="M291.129 215.121L291.157 215.095L291.156 215.149L291.129 215.121Z" fill="#272727"/>
<path d="M295.155 218.119L295.943 218.984L291.972 215.962L291.184 215.097L295.155 218.119Z" fill="#272727"/>
<path d="M299.155 218.664L299.957 219.516C298.31 219.918 296.893 219.721 295.955 218.997L295.153 218.144C296.105 218.856 297.509 219.04 299.155 218.664Z" fill="#272727"/>
<path d="M299.155 218.664L299.957 219.516C298.31 219.918 296.893 219.721 295.955 218.997L295.153 218.144C296.105 218.856 297.509 219.04 299.155 218.664Z" fill="#272727"/>
<path d="M280.131 238.427L279.329 237.575C279.57 237.832 279.989 237.922 280.494 237.805C280.772 237.746 281.08 237.61 281.377 237.407L282.179 238.26C281.869 238.449 281.562 238.585 281.296 238.657C280.791 238.775 280.372 238.684 280.131 238.427Z" fill="#272727"/>
<path d="M281.391 237.42L282.193 238.273C281.883 238.462 281.576 238.598 281.31 238.67C280.805 238.787 280.387 238.697 280.145 238.44L279.343 237.588C279.585 237.845 280.003 237.935 280.508 237.817C280.787 237.733 281.081 237.609 281.391 237.42Z" fill="#272727"/>
<path d="M285.172 235.01L285.974 235.862L282.191 238.274L281.389 237.422L285.172 235.01Z" fill="#272727"/>
<path d="M291.101 215.147L291.903 216L285.973 235.862L285.171 235.01L291.101 215.147Z" fill="#272727"/>
<path d="M285.231 221.309L291.114 215.161L285.184 235.023L281.401 237.435C281.091 237.624 280.784 237.76 280.518 237.832C279.535 238.068 278.881 237.51 279.193 236.451L282.304 226.103C282.78 224.482 283.811 222.798 285.231 221.309Z" fill="#3A3A46"/>
<path d="M311.492 210.243L312.294 211.095L312.976 213.947L312.174 213.095L311.492 210.243Z" fill="#272727"/>
<path d="M309.703 216.137L310.505 216.989L299.945 219.503L299.156 218.664L309.703 216.137Z" fill="#272727"/>
<path d="M311.493 210.245L312.176 213.097C312.417 214.17 311.097 215.82 309.703 216.137L299.143 218.651C297.496 219.053 296.079 218.856 295.141 218.132L291.17 215.11L311.493 210.245Z" fill="#3A3A46"/>
<path d="M312.176 213.096L312.978 213.948C313.219 215.022 311.9 216.672 310.505 216.989L309.704 216.137C311.098 215.82 312.431 214.157 312.176 213.096Z" fill="#272727"/>
<path d="M312.176 213.096L312.978 213.948C313.219 215.022 311.9 216.672 310.505 216.989L309.704 216.137C311.098 215.82 312.431 214.157 312.176 213.096Z" fill="#272727"/>
<path d="M292.364 212.324L293.09 213.095C293.383 213.406 293.471 213.91 293.279 214.55C292.894 215.804 291.574 217.072 290.312 217.366C289.688 217.52 289.191 217.401 288.898 217.09L288.173 216.319C288.466 216.63 288.962 216.749 289.587 216.595C290.849 216.301 292.195 215.034 292.553 213.779C292.732 213.151 292.657 212.635 292.364 212.324Z" fill="#19121B"/>
<path d="M292.366 212.324L293.092 213.095C293.27 213.284 293.366 213.551 293.369 213.854L292.644 213.083C292.641 212.78 292.544 212.513 292.366 212.324Z" fill="#19121B"/>
<path d="M292.655 213.096L293.38 213.867C293.387 214.065 293.353 214.301 293.279 214.55C293.145 215.007 292.866 215.474 292.536 215.886L291.81 215.115C292.154 214.69 292.419 214.236 292.553 213.778C292.627 213.53 292.661 213.294 292.655 213.096Z" fill="#19121B"/>
<path d="M291.81 215.115L292.536 215.886C291.946 216.594 291.109 217.177 290.312 217.366C289.688 217.52 289.191 217.401 288.898 217.09L288.173 216.318C288.466 216.63 288.962 216.749 289.587 216.595C290.384 216.406 291.22 215.823 291.81 215.115Z" fill="#19121B"/>
<path d="M290.951 212.047C292.213 211.753 292.938 212.524 292.554 213.778C292.17 215.032 290.849 216.3 289.588 216.595C288.326 216.889 287.601 216.118 287.985 214.864C288.343 213.609 289.676 212.355 290.951 212.047Z" fill="#525265"/>
<path d="M310.665 191.815L318.364 200.053C321.202 203.096 322.053 208.007 320.232 214.057C316.558 226.261 303.445 238.599 290.986 241.574C284.717 243.06 279.787 241.909 276.911 238.826L269.212 230.588C272.088 233.672 277.018 234.823 283.287 233.337C295.733 230.375 308.859 218.024 312.533 205.82C314.354 199.77 313.503 194.859 310.665 191.815Z" fill="#BF1A53"/>
<path d="M310.665 191.816L318.364 200.053C321.202 203.096 322.053 208.008 320.232 214.057C316.558 226.261 303.445 238.599 290.986 241.574C284.717 243.061 279.787 241.909 276.911 238.826L269.212 230.589C272.088 233.672 277.018 234.823 283.287 233.337C295.733 230.375 308.859 218.024 312.533 205.82C314.354 199.77 313.503 194.859 310.665 191.816Z" fill="#ED3B78"/>
<path d="M296.592 189.066C309.037 186.104 316.207 193.615 312.534 205.819C308.86 218.023 295.748 230.361 283.288 233.336C270.829 236.311 263.673 228.787 267.346 216.583C271.019 204.379 284.132 192.041 296.592 189.066ZM283.953 231.18C295.177 228.5 307.024 217.379 310.328 206.364C313.632 195.348 307.177 188.569 295.952 191.248C284.716 193.915 272.868 205.062 269.563 216.078C266.246 227.079 272.716 233.846 283.953 231.18Z" fill="#FF4081"/>
<path d="M272.984 383.633C261.177 394.742 246.925 403.28 233.084 406.586L147.81 426.885C133.61 430.272 121.765 427.849 114.446 420.071C107.127 412.292 105.442 400.335 109.675 386.354C110.266 384.421 112.306 383.318 114.237 383.898C116.168 384.479 117.26 386.512 116.669 388.445C113.222 399.799 114.331 409.237 119.792 415.041C125.24 420.831 134.605 422.527 146.148 419.776L231.423 399.478C256.859 393.424 283.724 368.146 291.315 343.126L295.191 330.374C295.782 328.44 297.822 327.337 299.753 327.918C301.684 328.498 302.776 330.531 302.184 332.465L298.309 345.217C294.18 358.818 284.791 372.524 272.984 383.633Z" fill="#B8B8C3"/>
<path d="M229.108 366.792L171.003 380.452C158.31 367.044 152.381 341.609 157.796 323.761L215.902 310.101C210.487 327.949 216.416 353.383 229.108 366.792Z" fill="#BF1A53"/>
<path d="M229.109 366.792L171.003 380.452C158.31 367.044 152.381 341.609 157.797 323.761L215.903 310.101C210.487 327.949 216.416 353.384 229.109 366.792Z" fill="#ED3B78"/>
<path d="M215.902 310.1L219.988 314.417C215.535 329.089 220.401 350.015 230.854 361.043L229.121 366.779C216.415 353.383 210.486 327.948 215.902 310.1Z" fill="#BB1850"/>
<path d="M507.499 262.013C516.274 293.798 504.49 324.856 481.172 331.416C480.081 331.729 479.046 331.937 478.026 332.107C470.87 334.504 462.664 332.814 454.655 326.755C452.663 325.238 450.653 323.456 448.693 321.373C430.258 301.916 421.7 265.156 429.557 239.273C431.939 231.447 435.562 225.513 439.962 221.577C440.221 221.307 440.508 221.012 440.806 220.757C442.899 218.839 445.716 217.362 449.374 216.317C472.718 209.784 498.724 230.228 507.499 262.013Z" fill="#3A3A46"/>
<path d="M483.972 262.956C491.877 291.581 481.263 319.548 460.273 325.449C459.276 325.724 458.347 325.909 457.446 326.069C456.526 326.373 455.596 326.611 454.668 326.769C452.676 325.252 450.666 323.47 448.706 321.387C430.271 301.93 421.714 265.17 429.57 239.287C431.952 231.461 435.575 225.527 439.975 221.591C440.234 221.322 440.521 221.026 440.819 220.771C459.061 221.461 477.209 238.46 483.972 262.956Z" fill="#525265"/>
<path d="M465.909 278.754C471.134 291.257 466.632 307.404 457.21 311.372C447.8 315.354 448.347 300.863 443.11 288.346C437.885 275.843 428.866 270.046 438.275 266.064C447.724 262.097 460.698 266.238 465.909 278.754Z" fill="#9797B2"/>
<path d="M347.234 213.975C349.039 208.017 353.928 206.835 358.167 211.313C362.407 215.792 364.38 224.239 362.561 230.184C360.756 236.142 355.867 237.324 351.628 232.845C347.388 228.367 345.428 219.933 347.234 213.975Z" fill="#EDECF8"/>
</svg>
