<svg width="46" height="33" viewBox="0 0 46 33" fill="none" xmlns="http://www.w3.org/2000/svg">
<path d="M37.0476 7.1837C34.5922 6.35816 31.9276 5.75897 29.1461 5.41278C29.1216 5.41222 29.0972 5.41551 29.0746 5.42241C29.052 5.42931 29.0316 5.43966 29.0151 5.45273C28.6711 5.89213 28.2686 6.46468 27.999 6.90408C25.0477 6.58451 22.0395 6.58451 19.0747 6.90408C18.824 6.45136 18.4453 5.89213 18.1014 5.45273C18.0833 5.4261 18.0278 5.41278 17.9721 5.41278C15.1759 5.75897 12.5045 6.35816 9.99573 7.1837C9.97714 7.1837 9.95827 7.19701 9.93939 7.21033C4.76785 12.6296 3.26209 17.9024 3.8398 23.1219C3.83924 23.1486 3.85727 23.1752 3.89417 23.1885C7.20368 24.9461 10.3977 26.0113 13.5621 26.717C13.6176 26.7303 13.6736 26.717 13.6928 26.6904C14.4519 25.9581 15.1376 25.1858 15.7311 24.3736C15.7694 24.3203 15.7333 24.267 15.6592 24.2537C14.6056 23.9608 13.609 23.6146 12.632 23.2151C12.5582 23.1885 12.5599 23.1086 12.6165 23.0687C12.8233 22.9622 13.0303 22.8423 13.2371 22.7358C13.2748 22.7092 13.3306 22.7092 13.3675 22.7225C19.7191 24.813 26.6169 24.813 32.9824 22.7225C33.0199 22.7092 33.0757 22.7092 33.1123 22.7358C33.3143 22.8556 33.5165 22.9622 33.7185 23.082C33.7921 23.1219 33.7904 23.2018 33.6968 23.2285C32.7213 23.6412 31.6917 23.9741 30.6258 24.267C30.5511 24.2804 30.5311 24.3469 30.5489 24.3869C31.1267 25.1991 31.7797 25.9714 32.4893 26.7037C32.5448 26.717 32.6003 26.7303 32.6564 26.717C35.8692 26.0113 39.1081 24.9461 42.4919 23.1885C42.5293 23.1752 42.5485 23.1486 42.5491 23.1219C43.4945 17.0902 41.4297 11.8573 37.1214 7.21033C37.1031 7.19701 37.0848 7.1837 37.0476 7.1837ZM16.7915 19.9396C14.8765 19.9396 13.3042 18.6747 13.3371 17.1168C13.37 15.5589 14.9585 14.294 16.9107 14.294C18.8815 14.294 20.4162 15.5722 20.365 17.1168C20.3321 18.6747 18.7437 19.9396 16.7915 19.9396ZM29.7503 19.9396C27.8353 19.9396 26.2631 18.6747 26.296 17.1168C26.3289 15.5589 27.9174 14.294 29.8696 14.294C31.8403 14.294 33.3751 15.5722 33.3239 17.1168C33.291 18.6747 31.7211 19.9396 29.7503 19.9396Z" fill="white"/>
</svg>
