<svg width="39" height="33" viewBox="0 0 39 33" fill="none" xmlns="http://www.w3.org/2000/svg">
<path d="M19.6719 0.085083C9.23939 0.085083 0.621318 7.24331 0.435089 16.0633C0.248859 24.8832 8.56465 32.0414 18.9971 32.0414C29.4296 32.0414 38.0477 24.8832 38.2339 16.0633C38.4201 7.24331 30.1043 0.085083 19.6719 0.085083ZM28.2118 10.9502C27.875 13.4748 26.517 19.6104 25.8336 22.4386C25.5437 23.6369 25.0061 24.0364 24.5137 24.0843C23.4158 24.1642 22.5987 23.4771 21.5529 22.886C19.9093 21.9592 18.9765 21.384 17.3889 20.4892C15.5398 19.4506 16.7615 18.8754 17.8583 17.9487C18.1469 17.709 23.0637 13.9861 23.1653 13.6506C23.1795 13.5997 23.1789 13.547 23.1635 13.4969C23.1481 13.4467 23.1183 13.4008 23.0769 13.363C22.9652 13.2831 22.8133 13.315 22.6807 13.331C22.5099 13.363 19.8326 14.8489 14.611 17.7889C13.8459 18.2203 13.1608 18.444 12.5564 18.428C11.8763 18.4121 10.5976 18.1085 9.63945 17.8368C8.45554 17.5173 7.53317 17.3415 7.62058 16.7823C7.66445 16.4947 8.14301 16.2071 9.03769 15.9035C14.5992 13.8743 18.294 12.5321 20.1407 11.893C25.4339 10.0395 26.5179 9.71993 27.2361 9.71993C27.3873 9.71993 27.7457 9.75188 27.9691 9.91167C28.1554 10.0395 28.2084 10.2153 28.2246 10.3431C28.2037 10.4389 28.2354 10.7266 28.2118 10.9502Z" fill="white"/>
</svg>
