<svg width="46" height="27" viewBox="0 0 46 27" fill="none" xmlns="http://www.w3.org/2000/svg">
<path d="M14.7761 26.043C31.6152 26.043 41.0378 16.0506 41.2204 7.40041C41.2263 7.1208 41.2323 6.83718 41.2215 6.55756C43.0345 5.62781 44.6066 4.47671 45.8642 3.15821C44.1778 3.68718 42.3952 4.03582 40.5742 4.19279C42.5061 3.37319 43.9674 2.08361 44.6863 0.563748C42.8713 1.32695 40.8912 1.86272 38.8325 2.14759C37.4748 1.09507 35.6634 0.39781 33.679 0.163809C31.6946 -0.0701919 29.6479 0.172126 27.856 0.853227C26.064 1.53433 24.6268 2.6162 23.767 3.93127C22.9071 5.24634 22.6727 6.72121 23.0998 8.12742C19.4624 7.9967 15.9156 7.31946 12.6893 6.13962C9.46306 4.95978 6.62946 3.30369 4.37229 1.27877C3.17422 2.72297 2.78182 4.43127 3.2748 6.05678C3.76777 7.68229 5.10915 9.10315 7.02655 10.0308C5.5758 9.9955 4.16212 9.71637 2.89952 9.21594L2.89762 9.30581C2.86818 10.8187 3.56905 12.2846 4.88176 13.4557C6.19448 14.6267 8.03851 15.4312 10.1022 15.733C9.31317 15.8881 8.49989 15.9653 7.68496 15.9627C7.11039 15.964 6.5378 15.9258 5.97501 15.8489C6.53258 17.1512 7.64774 18.2899 9.16432 19.1054C10.6809 19.9209 12.5229 20.3724 14.4324 20.3967C11.1492 22.2218 7.12027 23.2116 2.99455 23.2068C2.2675 23.209 1.54165 23.179 0.821139 23.117C4.96827 25.0289 9.80999 26.0441 14.7761 26.043Z" fill="white"/>
</svg>
