<svg width="45" height="19" viewBox="0 0 45 19" fill="none" xmlns="http://www.w3.org/2000/svg">
<path d="M25.2325 9.06306C25.1277 14.0263 19.4093 18.0508 12.4567 18.0508C10.8064 18.0524 9.17673 17.8211 7.66076 17.3703C6.14479 16.9195 4.7722 16.2579 3.62135 15.4233C2.47051 14.5887 1.56395 13.5975 0.953431 12.5062C0.342914 11.4149 0.040399 10.2449 0.0631575 9.06306C0.167996 4.09784 5.88641 0.0753283 12.8362 0.0753283C14.4868 0.0734909 16.1167 0.304523 17.633 0.755229C19.1493 1.20593 20.5222 1.86749 21.6734 2.7021C22.8245 3.53671 23.7313 4.52804 24.342 5.61947C24.9527 6.71089 25.2553 7.88103 25.2325 9.06306ZM39.0374 9.06306C38.9387 13.7367 36.042 17.5235 32.5671 17.5235C29.0922 17.5235 26.3554 13.7347 26.4541 9.06306C26.5527 4.38944 29.4494 0.602608 32.9243 0.602608C36.3993 0.602608 39.136 4.39144 39.0374 9.06306ZM44.6848 9.06306C44.5964 13.2493 43.5347 16.6427 42.3104 16.6427C41.0889 16.6427 40.1705 13.2473 40.2589 9.06306C40.3473 4.87677 41.409 1.48341 42.6333 1.48341C43.8548 1.48341 44.7732 4.87677 44.6848 9.06306Z" fill="white"/>
</svg>
