<svg width="38" height="39" viewBox="0 0 38 39" fill="none" xmlns="http://www.w3.org/2000/svg">
<rect width="38" height="38" rx="19" transform="matrix(-1 0 0 1 38 0.5)" fill="white"/>
<path d="M25 9.60066L25 29.4012C24.9993 29.6017 24.9423 29.7982 24.8349 29.9696C24.7276 30.141 24.5741 30.2807 24.3908 30.3739C24.2076 30.467 24.0016 30.5099 23.7951 30.4981C23.5885 30.4862 23.3892 30.42 23.2186 30.3066L8.45897 20.4063C7.84701 19.996 7.84701 19.0081 8.45897 18.5967L23.2186 8.69644C23.3889 8.58184 23.5883 8.51464 23.7951 8.50213C24.002 8.48963 24.2085 8.53229 24.3921 8.6255C24.5758 8.71871 24.7295 8.85888 24.8367 9.03081C24.9438 9.20273 25.0003 9.39982 25 9.60066Z" fill="black"/>
</svg>
