<svg width="38" height="39" viewBox="0 0 38 39" fill="none" xmlns="http://www.w3.org/2000/svg">
<rect y="0.5" width="38" height="38" rx="19" fill="white"/>
<path d="M13 9.60066L13 29.4012C13.0007 29.6017 13.0577 29.7982 13.1651 29.9696C13.2724 30.141 13.4259 30.2807 13.6092 30.3739C13.7924 30.467 13.9984 30.5099 14.2049 30.4981C14.4115 30.4862 14.6108 30.42 14.7814 30.3066L29.541 20.4063C30.153 19.996 30.153 19.0081 29.541 18.5967L14.7814 8.69644C14.6111 8.58184 14.4117 8.51464 14.2049 8.50213C13.998 8.48963 13.7915 8.53229 13.6079 8.6255C13.4242 8.71871 13.2705 8.85888 13.1633 9.03081C13.0562 9.20273 12.9997 9.39982 13 9.60066Z" fill="black"/>
</svg>
